<svg width="233" height="233" viewBox="0 0 233 233" fill="none" xmlns="http://www.w3.org/2000/svg">
<g filter="url(#filter0_d_107_30035)">
<rect x="35.4933" width="200" height="200" rx="24" transform="rotate(10.2222 35.4933 0)" fill="#212121" shape-rendering="crispEdges"/>
<g clip-path="url(#clip0_107_30035)">
<mask id="mask0_107_30035" style="mask-type:alpha" maskUnits="userSpaceOnUse" x="44" y="18" width="25" height="24">
<g clip-path="url(#clip1_107_30035)">
<path d="M63.6938 28.8629L62.9558 28.7298L61.8776 34.7084L62.6157 34.8415L63.3538 34.9746L64.4319 28.996L63.6938 28.8629ZM59.8279 36.7775L59.961 36.0394L51.0301 34.4289L50.897 35.167L50.7639 35.9051L59.6948 37.5156L59.8279 36.7775ZM48.961 32.3792L49.6991 32.5123L50.7772 26.5337L50.0391 26.4006L49.301 26.2675L48.2229 32.2461L48.961 32.3792ZM52.8269 24.4646L52.6938 25.2027L61.6248 26.8132L61.7579 26.0751L61.891 25.337L52.96 23.7265L52.8269 24.4646ZM50.897 35.167L51.0301 34.4289C50.6049 34.3522 50.3295 34.3015 50.1239 34.2472C49.9262 34.1943 49.8573 34.1534 49.8243 34.1281L49.37 34.726L48.9168 35.3231C49.1698 35.515 49.4505 35.6205 49.7386 35.6968C50.0167 35.7714 50.3623 35.8327 50.7639 35.9051L50.897 35.167ZM48.961 32.3792L48.2229 32.2461C48.1505 32.6476 48.0872 32.9928 48.0599 33.2795C48.0308 33.5761 48.0316 33.876 48.1229 34.181L48.8408 33.964L49.5597 33.7471C49.5476 33.7073 49.5333 33.6286 49.5528 33.4248C49.5737 33.2131 49.6224 32.9374 49.6991 32.5123L48.961 32.3792ZM49.37 34.726L49.8243 34.1281C49.6973 34.0321 49.6054 33.8997 49.5597 33.7471L48.8408 33.964L48.1229 34.181C48.2604 34.6356 48.5379 35.0352 48.9168 35.3231L49.37 34.726ZM62.6157 34.8415L61.8776 34.7084C61.801 35.1335 61.7503 35.4089 61.696 35.6145C61.643 35.8123 61.6022 35.8811 61.5769 35.9142L62.1748 36.3685L62.7716 36.8226C62.9637 36.5687 63.0692 36.2879 63.1456 35.9999C63.2201 35.7217 63.2814 35.3761 63.3538 34.9746L62.6157 34.8415ZM59.8279 36.7775L59.6948 37.5156C60.0963 37.588 60.4416 37.6513 60.7283 37.6786C61.0248 37.7077 61.3247 37.7069 61.6298 37.6156L61.4127 36.8977L61.1969 36.1789C61.1561 36.1909 61.0773 36.2051 60.8735 36.1857C60.6619 36.1648 60.3862 36.1161 59.961 36.0394L59.8279 36.7775ZM62.1748 36.3685L61.5769 35.9142C61.4808 36.0411 61.3484 36.1331 61.1969 36.1789L61.4127 36.8977L61.6298 37.6156C62.0844 37.4781 62.484 37.2006 62.7716 36.8226L62.1748 36.3685ZM63.6938 28.8629L64.4319 28.996C64.5044 28.5945 64.5676 28.2493 64.5949 27.9626C64.624 27.666 64.6232 27.3661 64.5317 27.062L63.814 27.2781L63.0951 27.495C63.1072 27.5348 63.1215 27.6135 63.102 27.8173C63.0811 28.029 63.0324 28.3047 62.9558 28.7298L63.6938 28.8629ZM61.7579 26.0751L61.6248 26.8132C62.0499 26.8899 62.3253 26.9405 62.5309 26.9949C62.7286 27.0478 62.7975 27.0887 62.8315 27.1141L63.2848 26.5161L63.739 25.9192C63.485 25.7271 63.2043 25.6216 62.9163 25.5453C62.6381 25.4707 62.2925 25.4094 61.891 25.337L61.7579 26.0751ZM63.814 27.2781L64.5317 27.062C64.3944 26.6064 64.1169 26.2069 63.739 25.9192L63.2848 26.5161L62.8315 27.1141C62.9575 27.21 63.0495 27.3424 63.0951 27.495L63.814 27.2781ZM50.0391 26.4006L50.7772 26.5337C50.8539 26.1085 50.9045 25.8332 50.9589 25.6275C51.0118 25.4298 51.0527 25.361 51.0779 25.3279L50.4801 24.8736L49.883 24.4205C49.6911 24.6734 49.5856 24.9541 49.5093 25.2422C49.4347 25.5204 49.3734 25.866 49.301 26.2675L50.0391 26.4006ZM52.8269 24.4646L52.96 23.7265C52.5585 23.6541 52.2132 23.5908 51.9265 23.5635C51.63 23.5344 51.3301 23.5352 51.026 23.6267L51.2421 24.3444L51.4589 25.0633C51.4987 25.0512 51.5775 25.037 51.7813 25.0564C51.9929 25.0773 52.2687 25.126 52.6938 25.2027L52.8269 24.4646ZM50.4801 24.8736L51.0779 25.3279C51.174 25.201 51.3064 25.109 51.4589 25.0633L51.2421 24.3444L51.026 23.6267C50.5704 23.764 50.1708 24.0415 49.883 24.4205L50.4801 24.8736ZM55.3979 30.4255L55.9683 29.939L51.1016 24.2388L50.532 24.7265L49.9616 25.213L54.8273 30.913L55.3979 30.4255ZM63.8177 27.1223L63.4534 26.4662L56.9022 30.1074L57.2667 30.7625L57.6311 31.4186L64.1813 27.7772L63.8177 27.1223ZM55.3979 30.4255L54.8273 30.913C55.5228 31.7273 56.6949 31.9387 57.6311 31.4186L57.2667 30.7625L56.9022 30.1074C56.5905 30.2808 56.1998 30.2104 55.9683 29.939L55.3979 30.4255Z" fill="black"/>
</g>
</mask>
<g mask="url(#mask0_107_30035)">
<rect x="48.4" y="18.5854" width="20" height="20" transform="rotate(10.2222 48.4 18.5854)" fill="#737373"/>
</g>
<g clip-path="url(#clip2_107_30035)">
<path d="M195.933 57.8917L195.113 57.7438C194.207 57.5804 193.605 56.714 193.768 55.8078L195.099 48.4268C195.263 47.5206 196.129 46.919 197.035 47.0824L204.416 48.4134C205.323 48.5768 205.924 49.4432 205.761 50.3494L205.613 51.1695M199.818 64.5197L207.199 65.8507C208.106 66.0141 208.972 65.4125 209.135 64.5063L210.466 57.1253C210.63 56.2191 210.028 55.3528 209.122 55.1894L201.741 53.8584C200.835 53.6949 199.968 54.2966 199.805 55.2028L198.474 62.5837C198.31 63.49 198.912 64.3563 199.818 64.5197Z" stroke="#737373" stroke-width="1.66667" stroke-linecap="round" stroke-linejoin="round"/>
</g>
</g>
<mask id="path-5-inside-1_107_30035" fill="white">
<path d="M31.2341 23.619C33.5864 10.5746 46.0679 1.90691 59.1124 4.2592L208.7 31.2341C221.744 33.5864 230.412 46.0679 228.059 59.1124L201.085 208.7C198.732 221.744 186.251 230.412 173.206 228.059L23.619 201.085C10.5746 198.732 1.90691 186.251 4.2592 173.206L31.2341 23.619Z"/>
</mask>
<path d="M31.2341 23.619C33.6844 10.0311 46.686 1.00224 60.2739 3.45254L207.893 30.0725C221.481 32.5228 230.51 45.5244 228.059 59.1124C230.314 46.6114 221.567 34.5705 208.522 32.2182L58.9349 5.24332C45.8905 2.89103 33.4884 11.1181 31.2341 23.619ZM31.2341 23.619M196.825 232.319L0 196.825L196.825 232.319M196.825 232.319M0 196.825L35.4933 0L0 196.825M0 196.825M232.319 35.4933L196.825 232.319L232.319 35.4933" fill="#292929" mask="url(#path-5-inside-1_107_30035)"/>
<g clip-path="url(#clip3_107_30035)">
<path d="M28.7021 152.58L28.5256 153.559L24.631 152.857L24.8075 151.878L28.7021 152.58ZM26.2673 150.282L27.422 150.491L26.1303 157.653C26.0715 157.98 26.0746 158.233 26.1398 158.413C26.2089 158.59 26.3134 158.72 26.4534 158.803C26.5973 158.883 26.7541 158.938 26.9237 158.968C27.0509 158.991 27.1565 159.004 27.2404 159.005C27.3248 159.004 27.3924 159.002 27.4431 159.002L27.4909 160.081C27.4073 160.096 27.2928 160.106 27.1472 160.11C27.0011 160.117 26.8204 160.102 26.6051 160.063C26.2789 160.004 25.9719 159.876 25.6841 159.68C25.3995 159.483 25.1803 159.223 25.0266 158.899C24.8761 158.576 24.8403 158.195 24.9191 157.758L26.2673 150.282ZM31.2151 156.125L30.3999 160.646L29.2452 160.438L31.0522 150.418L32.2068 150.626L31.5433 154.305L31.6412 154.323C31.8873 153.966 32.2071 153.706 32.6006 153.541C32.9979 153.374 33.4917 153.343 34.0821 153.45C34.5942 153.542 35.0242 153.726 35.372 154C35.7204 154.272 35.9627 154.637 36.0988 155.096C36.2388 155.553 36.2506 156.104 36.1341 156.75L35.273 161.525L34.1183 161.317L34.9653 156.62C35.073 156.023 35.0013 155.533 34.7502 155.151C34.503 154.767 34.1071 154.525 33.5623 154.427C33.184 154.359 32.8303 154.377 32.5014 154.483C32.1758 154.589 31.8989 154.78 31.6707 155.056C31.4458 155.332 31.294 155.688 31.2151 156.125ZM40.5081 162.631C39.7839 162.5 39.1881 162.228 38.7206 161.813C38.257 161.396 37.9353 160.873 37.7557 160.245C37.5798 159.614 37.5613 158.913 37.7002 158.143C37.839 157.374 38.1016 156.72 38.488 156.184C38.8782 155.645 39.3558 155.256 39.9208 155.018C40.4896 154.777 41.1133 154.717 41.7917 154.84C42.1831 154.91 42.5579 155.045 42.916 155.245C43.2741 155.444 43.5832 155.719 43.8434 156.069C44.1042 156.415 44.2843 156.845 44.3838 157.358C44.4833 157.871 44.4697 158.478 44.3433 159.18L44.2551 159.669L38.4621 158.624L38.6421 157.626L43.2608 158.459C43.3373 158.035 43.3207 157.641 43.2111 157.278C43.1047 156.915 42.914 156.61 42.6388 156.362C42.3669 156.114 42.0222 155.952 41.6047 155.877C41.1448 155.794 40.7262 155.837 40.3491 156.004C39.9758 156.169 39.6668 156.417 39.4221 156.746C39.1775 157.076 39.0178 157.448 38.9431 157.862L38.8231 158.528C38.7207 159.095 38.7318 159.594 38.8563 160.024C38.9847 160.451 39.2065 160.799 39.5218 161.069C39.8376 161.334 40.2287 161.509 40.6951 161.593C40.9985 161.648 41.2801 161.655 41.54 161.614C41.8038 161.571 42.041 161.479 42.2515 161.338C42.4627 161.195 42.6407 161.001 42.7856 160.758L43.8447 161.272C43.6591 161.629 43.4017 161.926 43.0727 162.164C42.7443 162.397 42.3618 162.557 41.9253 162.644C41.4893 162.727 41.0169 162.722 40.5081 162.631ZM47.3744 159.039L46.5592 163.56L45.4045 163.352L46.7597 155.837L47.8752 156.038L47.6635 157.212L47.7613 157.23C48.0063 156.88 48.3291 156.622 48.7296 156.455C49.1308 156.285 49.6151 156.251 50.1827 156.353C50.6915 156.445 51.1179 156.629 51.4619 156.907C51.8065 157.181 52.0468 157.548 52.183 158.007C52.3197 158.463 52.3304 159.01 52.2151 159.649L51.354 164.425L50.1993 164.217L51.0463 159.52C51.1528 158.929 51.0824 158.442 50.8352 158.057C50.5886 157.669 50.1978 157.427 49.6629 157.33C49.2943 157.264 48.9505 157.284 48.6314 157.392C48.3155 157.5 48.0468 157.692 47.8251 157.969C47.6035 158.245 47.4532 158.602 47.3744 159.039ZM56.4888 165.512C55.8103 165.39 55.2442 165.121 54.7903 164.706C54.3397 164.291 54.0232 163.768 53.8409 163.135C53.6618 162.504 53.6423 161.8 53.7822 161.023C53.9234 160.24 54.1885 159.583 54.5776 159.05C54.9699 158.518 55.4496 158.136 56.0167 157.905C56.587 157.675 57.2114 157.62 57.8898 157.743C58.5683 157.865 59.1328 158.134 59.5834 158.548C60.0373 158.964 60.3535 159.489 60.532 160.124C60.7137 160.759 60.734 161.469 60.5928 162.251C60.4529 163.028 60.187 163.68 59.7953 164.209C59.4068 164.739 58.9274 165.119 58.357 165.349C57.79 165.58 57.1672 165.635 56.4888 165.512ZM56.6758 164.475C57.1912 164.568 57.639 164.512 58.0194 164.308C58.3997 164.104 58.7086 163.801 58.9461 163.399C59.1836 162.998 59.3476 162.546 59.4382 162.043C59.5288 161.541 59.5332 161.058 59.4517 160.596C59.3701 160.133 59.187 159.738 58.9025 159.411C58.6181 159.083 58.2182 158.873 57.7028 158.78C57.1874 158.687 56.7393 158.744 56.3584 158.952C55.9774 159.159 55.6679 159.466 55.4299 159.871C55.1918 160.276 55.0275 160.729 54.9369 161.231C54.8463 161.734 54.8421 162.215 54.9243 162.674C55.0065 163.133 55.1901 163.525 55.4752 163.849C55.7602 164.174 56.1605 164.382 56.6758 164.475ZM61.6849 166.288L63.0401 158.773L64.1948 158.981L62.8396 166.496L61.6849 166.288ZM63.8531 157.626C63.628 157.585 63.4478 157.474 63.3123 157.291C63.1801 157.109 63.1335 156.91 63.1723 156.695C63.2111 156.48 63.3242 156.31 63.5117 156.185C63.7024 156.061 63.9103 156.02 64.1354 156.06C64.3605 156.101 64.5391 156.212 64.6713 156.394C64.8067 156.577 64.855 156.776 64.8162 156.991C64.7774 157.207 64.6626 157.376 64.4719 157.5C64.2844 157.625 64.0781 157.666 63.8531 157.626ZM64.9544 166.877L66.3096 159.362L67.4252 159.563L67.2205 160.698L67.2987 160.713C67.5028 160.365 67.8051 160.108 68.2057 159.941C68.6062 159.775 69.0316 159.732 69.4817 159.813C69.5665 159.828 69.6722 159.849 69.7988 159.875C69.9254 159.901 70.0208 159.924 70.0848 159.942L69.8731 161.116C69.8357 161.099 69.7487 161.068 69.6119 161.024C69.4791 160.976 69.336 160.938 69.1827 160.911C68.8173 160.845 68.4773 160.863 68.1627 160.964C67.8518 161.063 67.5891 161.231 67.3745 161.469C67.1638 161.704 67.0279 161.991 66.9667 162.33L66.1091 167.086L64.9544 166.877ZM76.4556 162.93L75.3655 163.036C75.3314 162.851 75.2655 162.666 75.1677 162.48C75.0737 162.291 74.9288 162.124 74.7329 161.977C74.5371 161.831 74.2712 161.727 73.9352 161.667C73.4753 161.584 73.0729 161.621 72.7281 161.777C72.3871 161.932 72.1875 162.17 72.1292 162.493C72.0775 162.78 72.141 163.025 72.3197 163.229C72.4985 163.433 72.7997 163.631 73.2233 163.822L74.2894 164.297C74.9319 164.581 75.3876 164.921 75.6565 165.316C75.9259 165.709 76.0133 166.167 75.9186 166.692C75.8409 167.123 75.6476 167.485 75.3385 167.78C75.0327 168.075 74.642 168.281 74.1663 168.397C73.6907 168.513 73.161 168.519 72.5771 168.414C71.8106 168.275 71.2062 167.995 70.7639 167.571C70.3215 167.148 70.0912 166.605 70.0727 165.941L71.2181 165.865C71.2495 166.288 71.3921 166.627 71.646 166.882C71.9031 167.137 72.2681 167.307 72.7411 167.392C73.2793 167.489 73.7271 167.452 74.0847 167.281C74.4461 167.107 74.6559 166.859 74.7142 166.536C74.7612 166.275 74.7093 166.04 74.5584 165.831C74.4081 165.618 74.1517 165.434 73.7892 165.278L72.5896 164.758C71.9308 164.471 71.4708 164.127 71.2097 163.726C70.9523 163.323 70.8705 162.862 70.964 162.343C71.0404 161.919 71.2271 161.566 71.5241 161.282C71.8243 161 72.1982 160.803 72.646 160.692C73.0971 160.581 73.5868 160.573 74.1152 160.669C74.8589 160.803 75.4133 161.071 75.7785 161.474C76.147 161.877 76.3727 162.362 76.4556 162.93ZM80.3039 169.807C79.6254 169.685 79.0593 169.416 78.6054 169C78.1548 168.586 77.8383 168.062 77.656 167.43C77.4769 166.798 77.4574 166.094 77.5973 165.318C77.7385 164.535 78.0036 163.877 78.3927 163.345C78.785 162.812 79.2647 162.431 79.8318 162.2C80.4021 161.969 81.0265 161.915 81.7049 162.037C82.3834 162.16 82.9479 162.428 83.3985 162.843C83.8524 163.258 84.1686 163.783 84.3471 164.418C84.5288 165.054 84.5491 165.763 84.4079 166.546C84.268 167.322 84.0021 167.975 83.6104 168.504C83.2219 169.033 82.7425 169.413 82.1721 169.644C81.6051 169.875 80.9823 169.929 80.3039 169.807ZM80.4909 168.77C81.0063 168.863 81.4541 168.807 81.8345 168.603C82.2148 168.399 82.5237 168.096 82.7612 167.694C82.9987 167.292 83.1627 166.84 83.2533 166.338C83.3439 165.835 83.3483 165.353 83.2668 164.89C83.1852 164.428 83.0021 164.033 82.7176 163.705C82.4332 163.378 82.0333 163.168 81.5179 163.075C81.0025 162.982 80.5544 163.039 80.1735 163.246C79.7925 163.454 79.483 163.76 79.245 164.165C79.0069 164.57 78.8426 165.024 78.752 165.526C78.6614 166.028 78.6572 166.509 78.7394 166.969C78.8216 167.428 79.0052 167.82 79.2903 168.144C79.5753 168.468 79.9756 168.677 80.4909 168.77ZM90.2018 163.671L90.0253 164.649L85.9742 163.919L86.1506 162.94L90.2018 163.671ZM86.0088 170.674L87.5511 162.122C87.6287 161.691 87.7945 161.35 88.0485 161.1C88.3025 160.849 88.6039 160.681 88.9527 160.596C89.3015 160.511 89.6553 160.501 90.0141 160.565C90.2979 160.616 90.5253 160.681 90.6965 160.759C90.8677 160.837 90.9938 160.904 91.0748 160.959L90.5621 161.897C90.5069 161.867 90.4298 161.827 90.3307 161.779C90.2349 161.732 90.1038 161.693 89.9374 161.663C89.5558 161.594 89.2628 161.641 89.0585 161.802C88.8574 161.965 88.7234 162.232 88.6563 162.604L87.1635 170.882L86.0088 170.674ZM95.0883 164.552L94.9119 165.53L91.0173 164.828L91.1938 163.849L95.0883 164.552ZM92.6536 162.254L93.8082 162.462L92.5166 169.625C92.4577 169.951 92.4609 170.204 92.5261 170.384C92.5951 170.562 92.6997 170.692 92.8397 170.774C92.9836 170.854 93.1404 170.909 93.31 170.94C93.4372 170.963 93.5427 170.975 93.6266 170.977C93.7111 170.975 93.7787 170.974 93.8294 170.973L93.8772 172.052C93.7936 172.068 93.6791 172.077 93.5335 172.081C93.3874 172.089 93.2067 172.073 92.9914 172.034C92.6652 171.975 92.3582 171.848 92.0704 171.651C91.7858 171.455 91.5666 171.195 91.4129 170.871C91.2624 170.547 91.2266 170.167 91.3054 169.73L92.6536 162.254ZM97.1727 172.687L96.2381 164.759L97.4515 164.978L98.0383 171.025L98.1166 171.039L100.759 165.574L101.992 165.797L102.543 171.817L102.621 171.831L105.28 166.39L106.493 166.608L102.848 173.711L101.713 173.506L101.11 167.436L100.993 167.415L98.3078 172.892L97.1727 172.687ZM108.844 174.974C108.368 174.888 107.952 174.72 107.596 174.471C107.241 174.218 106.98 173.9 106.814 173.516C106.648 173.129 106.609 172.691 106.697 172.202C106.775 171.772 106.922 171.438 107.14 171.201C107.359 170.961 107.623 170.79 107.935 170.688C108.246 170.585 108.58 170.528 108.936 170.514C109.296 170.499 109.654 170.499 110.012 170.516C110.479 170.54 110.857 170.563 111.146 170.585C111.439 170.604 111.658 170.588 111.802 170.536C111.949 170.485 112.039 170.367 112.073 170.181L112.08 170.142C112.167 169.659 112.102 169.26 111.886 168.945C111.674 168.63 111.302 168.425 110.77 168.329C110.219 168.23 109.765 168.273 109.408 168.458C109.051 168.642 108.785 168.86 108.608 169.112L107.583 168.522C107.861 168.101 108.186 167.793 108.558 167.597C108.934 167.399 109.325 167.284 109.731 167.253C110.142 167.219 110.536 167.236 110.914 167.305C111.156 167.348 111.428 167.427 111.73 167.543C112.036 167.655 112.321 167.826 112.582 168.055C112.847 168.285 113.046 168.595 113.177 168.986C113.309 169.377 113.321 169.87 113.213 170.467L112.32 175.419L111.166 175.211L111.349 174.193L111.291 174.182C111.183 174.331 111.021 174.482 110.805 174.635C110.589 174.788 110.317 174.903 109.99 174.978C109.663 175.054 109.281 175.053 108.844 174.974ZM109.207 173.968C109.664 174.051 110.065 174.03 110.411 173.907C110.759 173.785 111.039 173.596 111.25 173.341C111.464 173.087 111.6 172.803 111.656 172.49L111.847 171.433C111.787 171.483 111.67 171.518 111.495 171.537C111.324 171.553 111.127 171.56 110.905 171.557C110.687 171.551 110.475 171.543 110.268 171.533C110.065 171.52 109.9 171.51 109.773 171.504C109.466 171.489 109.174 171.502 108.897 171.543C108.624 171.581 108.392 171.673 108.201 171.817C108.014 171.958 107.894 172.175 107.841 172.469C107.769 172.87 107.862 173.2 108.122 173.459C108.386 173.716 108.747 173.885 109.207 173.968ZM114.428 175.799L115.783 168.284L116.899 168.485L116.694 169.62L116.772 169.634C116.976 169.287 117.279 169.03 117.679 168.863C118.08 168.696 118.505 168.653 118.955 168.734C119.04 168.75 119.146 168.77 119.272 168.797C119.399 168.823 119.494 168.845 119.558 168.863L119.347 170.038C119.309 170.021 119.222 169.99 119.085 169.945C118.953 169.898 118.809 169.86 118.656 169.832C118.291 169.766 117.951 169.784 117.636 169.886C117.325 169.985 117.063 170.153 116.848 170.39C116.637 170.625 116.501 170.912 116.44 171.251L115.583 176.007L114.428 175.799ZM122.448 177.407C121.724 177.276 121.128 177.004 120.661 176.589C120.197 176.172 119.875 175.65 119.696 175.021C119.52 174.39 119.501 173.689 119.64 172.92C119.779 172.15 120.042 171.497 120.428 170.96C120.818 170.421 121.296 170.032 121.861 169.794C122.43 169.553 123.053 169.494 123.732 169.616C124.123 169.687 124.498 169.822 124.856 170.021C125.214 170.22 125.523 170.495 125.784 170.845C126.044 171.192 126.224 171.621 126.324 172.134C126.423 172.647 126.41 173.255 126.283 173.956L126.195 174.445L120.402 173.401L120.582 172.402L125.201 173.235C125.277 172.811 125.261 172.418 125.151 172.054C125.045 171.692 124.854 171.386 124.579 171.138C124.307 170.89 123.962 170.729 123.545 170.653C123.085 170.57 122.666 170.613 122.289 170.78C121.916 170.946 121.607 171.193 121.362 171.523C121.118 171.852 120.958 172.224 120.883 172.639L120.763 173.304C120.661 173.871 120.672 174.37 120.796 174.8C120.925 175.228 121.147 175.576 121.462 175.845C121.778 176.11 122.169 176.285 122.635 176.369C122.939 176.424 123.22 176.431 123.48 176.39C123.744 176.347 123.981 176.255 124.192 176.115C124.403 175.971 124.581 175.777 124.726 175.534L125.785 176.048C125.599 176.406 125.342 176.703 125.013 176.94C124.684 177.173 124.302 177.334 123.865 177.42C123.429 177.503 122.957 177.498 122.448 177.407Z" fill="white"/>
</g>
<g clip-path="url(#clip4_107_30035)">
<path d="M25.8262 182.872C24.8281 182.692 23.9705 182.396 23.2533 181.984C22.5356 181.575 21.9635 181.059 21.5369 180.436C21.1103 179.814 20.8324 179.095 20.7031 178.281C20.5739 177.466 20.5984 176.564 20.7766 175.576C20.9489 174.62 21.2384 173.79 21.645 173.085C22.0549 172.381 22.5665 171.813 23.1798 171.382C23.797 170.948 24.5024 170.659 25.2961 170.516C26.093 170.373 26.9628 170.387 27.9055 170.557C28.822 170.722 29.5974 171.017 30.2315 171.441C30.8695 171.863 31.3742 172.37 31.7456 172.962C32.1209 173.552 32.3672 174.184 32.4847 174.858C32.6054 175.533 32.6052 176.207 32.4841 176.879C32.3988 177.352 32.2895 177.827 32.1562 178.305C32.0229 178.783 31.8461 179.212 31.6258 179.593C31.406 179.971 31.1205 180.257 30.7692 180.449C30.4212 180.643 29.9878 180.692 29.4692 180.599C29.2409 180.558 28.9962 180.477 28.7351 180.355C28.4741 180.234 28.2526 180.071 28.0705 179.867C27.8885 179.662 27.8032 179.416 27.8147 179.128L27.756 179.118C27.6436 179.293 27.4905 179.451 27.2969 179.591C27.1064 179.732 26.8717 179.829 26.5925 179.883C26.3166 179.938 25.9939 179.925 25.6244 179.845C25.2033 179.752 24.8469 179.59 24.5551 179.359C24.264 179.125 24.0362 178.838 23.8717 178.498C23.7112 178.156 23.6113 177.776 23.5722 177.358C23.5369 176.938 23.561 176.496 23.6445 176.032C23.7239 175.592 23.8618 175.201 24.0582 174.859C24.2545 174.517 24.4932 174.23 24.7742 173.998C25.0584 173.767 25.3718 173.597 25.7144 173.491C26.0608 173.382 26.4201 173.34 26.7925 173.367C27.1246 173.393 27.4188 173.461 27.675 173.572C27.9319 173.679 28.1359 173.808 28.287 173.96C28.4387 174.108 28.5245 174.259 28.5443 174.41L28.603 174.421L28.7018 173.873L29.739 174.06L28.9414 178.483C28.892 178.757 28.9252 179.012 29.0408 179.249C29.1565 179.485 29.3611 179.63 29.6546 179.683C29.9873 179.743 30.2624 179.674 30.4797 179.478C30.7002 179.282 30.8861 178.952 31.0372 178.487C31.1916 178.023 31.3358 177.419 31.4699 176.676C31.5487 176.239 31.566 175.797 31.5218 175.351C31.4814 174.903 31.3741 174.471 31.1998 174.056C31.0287 173.641 30.7861 173.259 30.472 172.909C30.1578 172.559 29.7689 172.26 29.3052 172.012C28.8453 171.76 28.3039 171.578 27.6809 171.466C26.9144 171.328 26.2063 171.323 25.5567 171.452C24.9109 171.578 24.3351 171.829 23.8293 172.206C23.3274 172.58 22.9073 173.071 22.569 173.676C22.2346 174.28 21.9936 174.99 21.8459 175.809C21.6959 176.641 21.672 177.399 21.7741 178.085C21.8794 178.77 22.1074 179.374 22.4579 179.895C22.8117 180.417 23.2877 180.85 23.8859 181.193C24.4834 181.54 25.1997 181.789 26.0347 181.94C26.3935 182.004 26.7536 182.034 27.1149 182.028C27.4763 182.023 27.7981 182.003 28.0802 181.97C28.3624 181.937 28.5657 181.911 28.6902 181.893L28.8019 182.843C28.5844 182.891 28.3049 182.928 27.9634 182.954C27.6252 182.981 27.2668 182.989 26.8882 182.978C26.5129 182.967 26.1589 182.932 25.8262 182.872ZM25.9609 178.875C26.398 178.954 26.7678 178.93 27.0703 178.802C27.3728 178.675 27.618 178.445 27.8061 178.112C27.9942 177.778 28.137 177.341 28.2347 176.8C28.3335 176.252 28.342 175.812 28.2603 175.481C28.1786 175.149 28.0152 174.898 27.7701 174.725C27.525 174.553 27.2067 174.432 26.8153 174.361C26.4435 174.294 26.1078 174.335 25.8083 174.483C25.5126 174.628 25.2656 174.85 25.0671 175.147C24.8724 175.442 24.741 175.779 24.6728 176.157C24.5975 176.575 24.5821 176.978 24.6265 177.366C24.6715 177.752 24.799 178.081 25.009 178.355C25.2196 178.625 25.5369 178.799 25.9609 178.875ZM33.4325 181.516L34.7877 174L35.9423 174.209L34.5871 181.724L33.4325 181.516ZM35.6006 172.854C35.3756 172.813 35.1953 172.702 35.0599 172.519C34.9277 172.337 34.881 172.138 34.9198 171.923C34.9587 171.707 35.0718 171.538 35.2593 171.413C35.45 171.289 35.6579 171.248 35.883 171.288C36.108 171.329 36.2867 171.44 36.4188 171.622C36.5543 171.805 36.6026 172.004 36.5638 172.219C36.525 172.435 36.4102 172.604 36.2194 172.728C36.032 172.852 35.8257 172.894 35.6006 172.854ZM39.7268 182.812C39.0222 182.685 38.4455 182.41 37.9967 181.985C37.5479 181.561 37.2391 181.032 37.0704 180.398C36.9017 179.765 36.885 179.073 37.0203 178.323C37.1579 177.56 37.4196 176.912 37.8054 176.378C38.1951 175.843 38.6724 175.455 39.2374 175.217C39.8062 174.976 40.4298 174.917 41.1083 175.039C41.6367 175.135 42.0953 175.318 42.484 175.59C42.8728 175.863 43.1707 176.199 43.3779 176.6C43.5851 177.001 43.679 177.443 43.6595 177.924L42.5049 177.716C42.4786 177.358 42.3376 177.019 42.0818 176.7C41.83 176.378 41.4497 176.172 40.9408 176.08C40.4907 175.999 40.0748 176.045 39.6933 176.219C39.3155 176.39 38.9938 176.67 38.7282 177.06C38.4664 177.447 38.2843 177.925 38.182 178.492C38.0773 179.073 38.0774 179.595 38.1825 180.058C38.2907 180.523 38.4914 180.904 38.7844 181.203C39.0807 181.502 39.4572 181.693 39.9138 181.775C40.2139 181.829 40.4957 181.826 40.7591 181.766C41.0226 181.706 41.2568 181.593 41.4617 181.428C41.6666 181.263 41.8296 181.05 41.9508 180.789L43.1055 180.997C42.9602 181.429 42.7267 181.799 42.4049 182.108C42.087 182.415 41.6988 182.634 41.2404 182.767C40.7858 182.897 40.2813 182.912 39.7268 182.812ZM47.3598 173.681L45.5528 183.701L44.3982 183.493L46.2051 173.473L47.3598 173.681ZM50.6925 184.79C50.014 184.667 49.4479 184.399 48.994 183.983C48.5434 183.569 48.2269 183.045 48.0446 182.413C47.8655 181.781 47.846 181.077 47.986 180.301C48.1271 179.518 48.3922 178.86 48.7813 178.327C49.1736 177.795 49.6533 177.414 50.2204 177.183C50.7907 176.952 51.4151 176.898 52.0936 177.02C52.772 177.143 53.3365 177.411 53.7872 177.826C54.241 178.241 54.5572 178.766 54.7357 179.401C54.9174 180.037 54.9377 180.746 54.7966 181.529C54.6566 182.305 54.3907 182.958 53.999 183.487C53.6105 184.016 53.1311 184.396 52.5608 184.627C51.9937 184.858 51.3709 184.912 50.6925 184.79ZM50.8795 183.753C51.3949 183.845 51.8428 183.79 52.2231 183.586C52.6034 183.381 52.9124 183.078 53.1498 182.677C53.3873 182.275 53.5513 181.823 53.6419 181.321C53.7325 180.818 53.737 180.336 53.6554 179.873C53.5738 179.411 53.3907 179.016 53.1063 178.688C52.8218 178.361 52.4219 178.15 51.9065 178.057C51.3912 177.965 50.943 178.022 50.5621 178.229C50.1811 178.437 49.8717 178.743 49.6336 179.148C49.3955 179.553 49.2312 180.007 49.1406 180.509C49.0501 181.011 49.0459 181.492 49.128 181.951C49.2102 182.411 49.3938 182.803 49.6789 183.127C49.964 183.451 50.3642 183.66 50.8795 183.753ZM61.1788 183.347L61.9799 178.904L63.1346 179.112L61.7794 186.627L60.6247 186.419L60.8541 185.147L60.7758 185.133C60.5309 185.483 60.1984 185.758 59.7783 185.958C59.3588 186.156 58.8653 186.203 58.2977 186.101C57.828 186.016 57.4291 185.838 57.1008 185.566C56.7731 185.292 56.5425 184.927 56.4091 184.472C56.2762 184.013 56.2674 183.465 56.3827 182.825L57.2438 178.05L58.3985 178.258L57.5515 182.955C57.4527 183.503 57.5272 183.968 57.7749 184.349C58.026 184.731 58.3913 184.966 58.8707 185.052C59.1578 185.104 59.4629 185.083 59.7862 184.99C60.1128 184.897 60.4045 184.717 60.6615 184.451C60.9217 184.184 61.0941 183.816 61.1788 183.347ZM66.7038 187.677C66.0775 187.564 65.5532 187.306 65.1307 186.903C64.7089 186.497 64.415 185.979 64.2489 185.35C64.0835 184.717 64.0725 184.003 64.2161 183.207C64.3584 182.418 64.6173 181.757 64.9927 181.226C65.3681 180.694 65.8257 180.313 66.3655 180.084C66.9053 179.855 67.4916 179.797 68.1244 179.911C68.6137 179.999 68.9855 180.151 69.2399 180.365C69.4981 180.576 69.6837 180.798 69.7967 181.031C69.9135 181.261 70.0026 181.449 70.0638 181.594L70.1617 181.612L70.8287 177.913L71.9834 178.121L70.1765 188.142L69.0609 187.94L69.2691 186.786L69.1321 186.761C69.0226 186.883 68.8708 187.034 68.6766 187.214C68.4829 187.392 68.2263 187.536 67.9066 187.646C67.5874 187.754 67.1865 187.764 66.7038 187.677ZM67.0474 186.668C67.5106 186.752 67.9237 186.701 68.2869 186.518C68.6507 186.331 68.9546 186.037 69.1986 185.636C69.4431 185.233 69.6166 184.747 69.7189 184.179C69.8201 183.618 69.8271 183.113 69.7399 182.663C69.6533 182.209 69.4713 181.836 69.194 181.544C68.9173 181.248 68.5441 181.058 68.0744 180.973C67.5851 180.885 67.1547 180.937 66.7833 181.129C66.4156 181.319 66.1118 181.613 65.8716 182.01C65.6353 182.406 65.4695 182.867 65.3743 183.396C65.2778 183.931 65.2717 184.432 65.356 184.898C65.4441 185.362 65.6264 185.752 65.9028 186.068C66.1831 186.381 66.5646 186.581 67.0474 186.668ZM73.279 188.782C73.0376 188.738 72.8461 188.615 72.7044 188.411C72.5627 188.207 72.5136 187.984 72.5571 187.742C72.6006 187.501 72.7244 187.31 72.9285 187.168C73.1325 187.026 73.3552 186.977 73.5966 187.021C73.838 187.064 74.0295 187.188 74.1712 187.392C74.3129 187.596 74.362 187.819 74.3185 188.06C74.2896 188.22 74.2224 188.359 74.1167 188.478C74.0143 188.598 73.8889 188.686 73.7405 188.744C73.5959 188.799 73.4421 188.811 73.279 188.782ZM79.2706 189.943C78.5661 189.816 77.9894 189.54 77.5405 189.116C77.0917 188.692 76.7829 188.163 76.6142 187.529C76.4455 186.896 76.4288 186.204 76.5641 185.454C76.7017 184.691 76.9634 184.043 77.3492 183.509C77.7389 182.973 78.2162 182.586 78.7812 182.348C79.35 182.107 79.9737 182.048 80.6521 182.17C81.1805 182.265 81.6391 182.449 82.0278 182.721C82.4166 182.993 82.7146 183.33 82.9218 183.731C83.129 184.132 83.2228 184.574 83.2034 185.055L82.0487 184.847C82.0224 184.488 81.8814 184.15 81.6257 183.831C81.3738 183.509 80.9935 183.303 80.4846 183.211C80.0345 183.13 79.6187 183.176 79.2371 183.35C78.8594 183.521 78.5377 183.801 78.272 184.191C78.0102 184.578 77.8282 185.056 77.7258 185.623C77.6211 186.204 77.6213 186.726 77.7263 187.189C77.8346 187.653 78.0352 188.035 78.3283 188.334C78.6245 188.633 79.001 188.824 79.4577 188.906C79.7577 188.96 80.0395 188.957 80.303 188.897C80.5664 188.836 80.8006 188.724 81.0055 188.559C81.2104 188.394 81.3734 188.18 81.4946 187.919L82.6493 188.128C82.5041 188.559 82.2705 188.93 81.9488 189.239C81.6308 189.545 81.2426 189.765 80.7842 189.898C80.3296 190.028 79.8251 190.043 79.2706 189.943ZM86.9668 191.331C86.2883 191.209 85.7222 190.94 85.2683 190.525C84.8177 190.11 84.5012 189.586 84.3189 188.954C84.1398 188.322 84.1203 187.618 84.2603 186.842C84.4014 186.059 84.6665 185.401 85.0556 184.869C85.4479 184.337 85.9276 183.955 86.4947 183.724C87.065 183.493 87.6894 183.439 88.3679 183.562C89.0463 183.684 89.6108 183.952 90.0615 184.367C90.5153 184.782 90.8315 185.307 91.01 185.942C91.1917 186.578 91.212 187.287 91.0709 188.07C90.9309 188.846 90.665 189.499 90.2733 190.028C89.8848 190.557 89.4054 190.937 88.8351 191.168C88.268 191.399 87.6452 191.453 86.9668 191.331ZM87.1538 190.294C87.6692 190.387 88.1171 190.331 88.4974 190.127C88.8777 189.923 89.1866 189.62 89.4241 189.218C89.6616 188.816 89.8256 188.364 89.9162 187.862C90.0068 187.36 90.0113 186.877 89.9297 186.414C89.8481 185.952 89.665 185.557 89.3806 185.229C89.0961 184.902 88.6962 184.692 88.1808 184.599C87.6655 184.506 87.2173 184.563 86.8364 184.771C86.4554 184.978 86.1459 185.284 85.9079 185.689C85.6698 186.094 85.5055 186.548 85.4149 187.05C85.3244 187.553 85.3202 188.033 85.4023 188.493C85.4845 188.952 85.6681 189.344 85.9532 189.668C86.2383 189.992 86.6385 190.201 87.1538 190.294ZM92.1629 192.106L93.5181 184.591L94.6336 184.792L94.4219 185.967L94.5197 185.984C94.7487 185.611 95.0576 185.345 95.4466 185.187C95.8362 185.024 96.2757 184.988 96.7649 185.076C97.2607 185.165 97.653 185.352 97.9419 185.637C98.2346 185.918 98.4377 186.277 98.5513 186.711L98.6296 186.725C98.892 186.372 99.2363 186.116 99.6623 185.957C100.089 185.795 100.571 185.762 101.11 185.859C101.782 185.98 102.293 186.29 102.645 186.788C102.997 187.282 103.093 187.972 102.934 188.855L102.027 193.885L100.872 193.677L101.779 188.647C101.879 188.093 101.799 187.669 101.538 187.376C101.278 187.083 100.942 186.9 100.531 186.826C100.003 186.731 99.5646 186.817 99.2166 187.084C98.8693 187.348 98.6518 187.723 98.5641 188.209L97.6819 193.102L96.5076 192.89L97.4358 187.743C97.5128 187.316 97.4363 186.946 97.2061 186.635C96.9765 186.321 96.6431 186.125 96.206 186.046C95.9059 185.992 95.611 186.021 95.3213 186.134C95.0348 186.247 94.786 186.431 94.575 186.686C94.3679 186.939 94.231 187.249 94.1646 187.618L93.3176 192.315L92.1629 192.106Z" fill="#8C8C8C"/>
</g>
</g>
<defs>
<filter id="filter0_d_107_30035" x="-1.99985" y="-1" width="236.318" height="236.319" filterUnits="userSpaceOnUse" color-interpolation-filters="sRGB">
<feFlood flood-opacity="0" result="BackgroundImageFix"/>
<feColorMatrix in="SourceAlpha" type="matrix" values="0 0 0 0 0 0 0 0 0 0 0 0 0 0 0 0 0 0 127 0" result="hardAlpha"/>
<feOffset dy="1"/>
<feGaussianBlur stdDeviation="1"/>
<feComposite in2="hardAlpha" operator="out"/>
<feColorMatrix type="matrix" values="0 0 0 0 0 0 0 0 0 0 0 0 0 0 0 0 0 0 0.1 0"/>
<feBlend mode="normal" in2="BackgroundImageFix" result="effect1_dropShadow_107_30035"/>
<feBlend mode="normal" in="SourceGraphic" in2="effect1_dropShadow_107_30035" result="shape"/>
</filter>
<clipPath id="clip0_107_30035">
<rect width="168" height="20" fill="white" transform="translate(48.4 18.5854) rotate(10.2222)"/>
</clipPath>
<clipPath id="clip1_107_30035">
<rect width="20" height="20" fill="white" transform="translate(48.4 18.5854) rotate(10.2222)"/>
</clipPath>
<clipPath id="clip2_107_30035">
<rect width="20" height="20" fill="white" transform="translate(194.051 44.8506) rotate(10.2222)"/>
</clipPath>
<clipPath id="clip3_107_30035">
<rect width="168" height="20" fill="white" transform="translate(25.6837 144.554) rotate(10.2222)"/>
</clipPath>
<clipPath id="clip4_107_30035">
<rect width="168" height="20" fill="white" transform="translate(22.1344 164.236) rotate(10.2222)"/>
</clipPath>
</defs>
</svg>
