<svg width="231" height="231" viewBox="0 0 231 231" fill="none" xmlns="http://www.w3.org/2000/svg">
<g filter="url(#filter0_d_107_30057)">
<g clip-path="url(#clip0_107_30057)">
<rect x="33.8214" width="200" height="200" rx="24" transform="rotate(9.7359 33.8214 0)" fill="#171717"/>
<g clip-path="url(#clip1_107_30057)">
<g clip-path="url(#clip2_107_30057)">
<g clip-path="url(#clip3_107_30057)">
<path d="M62.3779 25.8584C62.4901 25.205 62.0516 24.5849 61.3991 24.4729C60.7457 24.3608 60.1256 24.7993 60.0135 25.4527C59.9017 26.1042 60.3413 26.7235 60.9938 26.8354C61.6453 26.9472 62.2662 26.5099 62.3779 25.8584Z" fill="#FD04CE"/>
<path d="M62.3691 35.3597C62.161 36.3122 61.9109 36.806 61.7185 37.1291C61.4603 37.5577 61.1901 37.8492 60.785 38.1348C60.383 38.4199 60.0182 38.5765 59.5285 38.6751C59.1594 38.7507 58.6083 38.8226 57.6405 38.7032C56.5948 38.5715 56.2857 38.5276 53.6542 38.0761C51.0256 37.625 50.7176 37.5631 49.6878 37.3387C48.7356 37.1286 48.2419 36.8775 47.9191 36.6832C47.4873 36.4264 47.1986 36.1577 46.9127 35.7546C46.6249 35.3501 46.4684 34.9854 46.3698 34.4956C46.2961 34.1269 46.2229 33.5776 46.3462 32.6105C46.473 31.5639 46.5178 31.2499 46.9683 28.6243C47.4198 25.9927 47.4817 25.6848 47.7111 24.6557C47.9172 23.7029 48.1693 23.2094 48.3622 22.8833C48.6184 22.4545 48.8872 22.1648 49.2932 21.8803C49.6972 21.5955 50.0591 21.4375 50.5521 21.3374C50.9213 21.2617 51.4699 21.1925 52.4378 21.3109C53.4834 21.4436 53.7949 21.4849 56.4235 21.9359C59.055 22.3874 59.3605 22.452 60.3906 22.6754C61.3426 22.8864 61.8387 23.1349 62.1615 23.3293C62.59 23.5875 62.8815 23.8577 63.1655 24.2605C63.4524 24.6638 63.6103 25.0268 63.7109 25.5168C63.7841 25.8886 63.8553 26.4375 63.7339 27.4049C63.6042 28.451 63.5629 28.7625 63.1114 31.3941C62.6609 34.0197 62.5954 34.3301 62.3691 35.3597ZM65.5199 27.6282C65.6515 26.5712 65.6099 25.8264 65.4707 25.1593C65.3324 24.469 65.0915 23.8625 64.6366 23.2203C64.1834 22.5794 63.6929 22.1503 63.0887 21.7869C62.5036 21.4359 61.8178 21.1457 60.7769 20.9205C59.736 20.6891 59.4025 20.6228 56.7275 20.1638C54.0556 19.7054 53.716 19.6562 52.6585 19.5275C51.6041 19.3933 50.8607 19.4382 50.1902 19.5738C49.5013 19.7153 48.8948 19.9562 48.255 20.4096C47.612 20.8634 47.1827 21.3548 46.8192 21.9591C46.4686 22.5422 46.1801 23.2303 45.9499 24.2704C45.7246 25.3113 45.6551 25.6453 45.1962 28.3202C44.7377 30.9922 44.692 31.3293 44.5573 32.3868C44.4289 33.4423 44.4706 34.187 44.6065 34.8556C44.7482 35.5435 44.9886 36.1529 45.4439 36.7932C45.8962 37.4329 46.3872 37.8651 46.9895 38.2282C47.5765 38.5795 48.2618 38.8666 49.3013 39.0946C50.3416 39.3228 50.6777 39.3927 53.3496 39.8511C56.0245 40.3101 56.3617 40.3557 57.4196 40.4875C58.4766 40.6192 59.2194 40.5772 59.888 40.4413C60.5788 40.3001 61.1848 40.0561 61.8255 39.6039C62.4682 39.1521 62.898 38.6576 63.2579 38.0558C63.6119 37.4713 63.8994 36.783 64.1273 35.7445C64.3557 34.7032 64.425 34.3701 64.8835 31.6981C65.3424 29.0232 65.3883 28.6851 65.5199 27.6282Z" fill="url(#paint0_linear_107_30057)"/>
<path d="M54.476 33.2872C52.6645 32.9764 51.4467 31.2567 51.7574 29.4461C52.0687 27.6316 53.7902 26.4152 55.6017 26.7261C57.4133 27.0369 58.6328 28.7579 58.3215 30.5724C58.0108 32.3829 56.2875 33.598 54.476 33.2872ZM55.9063 24.951C53.1141 24.4719 50.4644 26.3499 49.9853 29.1421C49.5067 31.9313 51.3792 34.5832 54.1714 35.0622C56.9636 35.5413 59.615 33.6657 60.0936 30.8764C60.5726 28.0842 58.6985 25.4301 55.9063 24.951Z" fill="url(#paint1_linear_107_30057)"/>
</g>
</g>
</g>
<path d="M207.174 50.6274L194.664 59.4727M207.174 50.6274L198.96 49.2182M207.174 50.6274L205.764 58.8407" stroke="#8C8C8C" stroke-width="1.66667" stroke-linecap="round" stroke-linejoin="round"/>
<mask id="path-6-inside-1_107_30057" fill="white">
<path d="M29.7628 23.6543C32.0043 10.5904 44.4118 1.81708 57.4757 4.05857L207.287 29.7628C220.351 32.0043 229.124 44.4118 226.882 57.4757L201.178 207.287C198.937 220.351 186.529 229.124 173.465 226.882L23.6543 201.178C10.5904 198.937 1.81708 186.529 4.05857 173.465L29.7628 23.6543Z"/>
</mask>
<path d="M29.7628 23.6543C32.0977 10.0461 45.0222 0.907197 58.6304 3.24208L206.47 28.6081C220.078 30.943 229.217 43.8675 226.882 57.4757C229.03 44.9561 220.181 32.9899 207.117 30.7484L57.3066 5.04417C44.2427 2.80268 31.9109 11.1347 29.7628 23.6543ZM29.7628 23.6543M197.12 230.941L0 197.12L197.12 230.941M197.12 230.941M0 197.12L33.8214 0L0 197.12M0 197.12M230.941 33.8214L197.12 230.941L230.941 33.8214" fill="#292929" mask="url(#path-6-inside-1_107_30057)"/>
<g clip-path="url(#clip4_107_30057)">
<path d="M24.0995 157.626L25.3909 150.1L26.5473 150.298L25.2559 157.825L24.0995 157.626ZM26.1941 148.946C25.9687 148.908 25.7875 148.798 25.6505 148.616C25.5168 148.435 25.4685 148.237 25.5054 148.021C25.5424 147.805 25.6541 147.635 25.8405 147.509C26.0302 147.383 26.2378 147.34 26.4632 147.378C26.6886 147.417 26.8681 147.527 27.0018 147.708C27.1388 147.889 27.1888 148.088 27.1518 148.304C27.1148 148.519 27.0015 148.69 26.8118 148.815C26.6254 148.941 26.4195 148.985 26.1941 148.946ZM29.3072 153.859L28.5304 158.386L27.374 158.188L28.6653 150.662L29.7825 150.853L29.5807 152.029L29.6787 152.046C29.9207 151.694 30.2413 151.433 30.6404 151.263C31.0401 151.089 31.5241 151.051 32.0925 151.149C32.6021 151.236 33.0301 151.417 33.3764 151.692C33.7233 151.963 33.9668 152.328 34.1068 152.786C34.2474 153.24 34.2628 153.788 34.1529 154.428L33.3323 159.21L32.1759 159.012L32.983 154.308C33.0845 153.717 33.01 153.23 32.7595 152.847C32.5096 152.461 32.1168 152.222 31.5811 152.13C31.212 152.067 30.8683 152.091 30.5501 152.201C30.2352 152.311 29.9681 152.506 29.7488 152.785C29.5295 153.063 29.3823 153.421 29.3072 153.859ZM41.7788 154.647L40.6896 154.763C40.6539 154.578 40.5864 154.394 40.4871 154.208C40.3915 154.02 40.2452 153.854 40.0481 153.709C39.851 153.564 39.5842 153.463 39.2477 153.405C38.7871 153.326 38.3851 153.367 38.0416 153.526C37.7019 153.683 37.5043 153.924 37.4488 154.247C37.3995 154.534 37.4651 154.779 37.6456 154.982C37.8261 155.184 38.1289 155.379 38.5541 155.566L39.6242 156.033C40.2691 156.311 40.7277 156.647 40.9999 157.04C41.2727 157.43 41.3639 157.888 41.2737 158.414C41.1997 158.845 41.0094 159.209 40.7029 159.506C40.3996 159.804 40.0106 160.013 39.536 160.134C39.0614 160.254 38.5317 160.264 37.947 160.164C37.1793 160.032 36.5725 159.756 36.1266 159.337C35.6807 158.917 35.4457 158.376 35.4217 157.713L36.5663 157.626C36.6014 158.049 36.7469 158.387 37.0029 158.64C37.2621 158.893 37.6286 159.06 38.1022 159.141C38.6412 159.233 39.0888 159.193 39.4449 159.018C39.8048 158.841 40.0125 158.591 40.068 158.268C40.1128 158.006 40.0589 157.772 39.9063 157.564C39.7541 157.353 39.4962 157.171 39.1324 157.018L37.9284 156.508C37.2672 156.227 36.8043 155.887 36.5398 155.488C36.279 155.087 36.1932 154.627 36.2824 154.107C36.3552 153.683 36.5389 153.327 36.8334 153.042C37.1312 152.757 37.5035 152.556 37.9503 152.441C38.4004 152.327 38.89 152.315 39.4192 152.406C40.164 152.534 40.7207 152.797 41.0894 153.197C41.4612 153.597 41.6911 154.08 41.7788 154.647ZM47.2191 153.845L47.051 154.825L43.1506 154.156L43.3187 153.176L47.2191 153.845ZM44.7649 151.568L45.9213 151.766L44.6905 158.94C44.6344 159.266 44.6398 159.519 44.7065 159.699C44.777 159.876 44.8827 160.005 45.0234 160.086C45.168 160.165 45.3252 160.219 45.495 160.248C45.6224 160.27 45.7281 160.281 45.812 160.282C45.8965 160.28 45.964 160.278 46.0147 160.277L46.0717 161.356C45.9882 161.372 45.8738 161.382 45.7283 161.388C45.5822 161.396 45.4013 161.382 45.1858 161.345C44.8591 161.289 44.551 161.164 44.2615 160.97C43.9753 160.776 43.7539 160.518 43.5974 160.195C43.4442 159.873 43.4052 159.493 43.4803 159.055L44.7649 151.568ZM49.8518 162.226C49.3749 162.144 48.9574 161.98 48.5995 161.734C48.2422 161.484 47.9786 161.168 47.8088 160.786C47.6395 160.401 47.5969 159.963 47.681 159.473C47.755 159.042 47.8999 158.707 48.1157 158.468C48.3321 158.226 48.5956 158.053 48.9061 157.948C49.2167 157.843 49.5499 157.783 49.9058 157.766C50.2655 157.747 50.624 157.745 50.9814 157.759C51.4488 157.779 51.8272 157.798 52.1164 157.818C52.4095 157.834 52.6278 157.816 52.7714 157.764C52.9182 157.712 53.0076 157.592 53.0395 157.406L53.0462 157.367C53.1292 156.884 53.0614 156.485 52.8427 156.172C52.6273 155.859 52.2534 155.657 51.721 155.566C51.1689 155.471 50.7153 155.518 50.3602 155.706C50.0052 155.894 49.7404 156.114 49.5659 156.366L48.5356 155.786C48.81 155.362 49.1325 155.051 49.5029 154.852C49.8771 154.651 50.2672 154.533 50.6733 154.498C51.0833 154.461 51.4777 154.475 51.8566 154.54C52.0984 154.581 52.371 154.658 52.6745 154.771C52.9818 154.881 53.2674 155.049 53.5311 155.276C53.7981 155.504 53.9991 155.812 54.134 156.202C54.2689 156.591 54.285 157.085 54.1825 157.683L53.3316 162.642L52.1752 162.443L52.3501 161.424L52.2913 161.414C52.1849 161.564 52.0242 161.716 51.8094 161.871C51.5945 162.026 51.3239 162.143 50.9977 162.221C50.6715 162.3 50.2895 162.301 49.8518 162.226ZM50.2064 161.218C50.6638 161.296 51.0646 161.273 51.4091 161.147C51.7568 161.021 52.035 160.83 52.2438 160.574C52.4559 160.317 52.5889 160.033 52.6427 159.719L52.8243 158.661C52.7652 158.711 52.6482 158.746 52.4731 158.767C52.302 158.785 52.1055 158.793 51.8837 158.792C51.6658 158.788 51.4533 158.782 51.2463 158.773C51.0431 158.762 50.878 158.754 50.7511 158.749C50.4439 158.736 50.152 158.752 49.8755 158.795C49.6029 158.836 49.3717 158.929 49.1819 159.075C48.996 159.218 48.8778 159.436 48.8273 159.73C48.7584 160.132 48.8549 160.461 49.1169 160.718C49.3826 160.972 49.7458 161.139 50.2064 161.218ZM57.9691 166.504C57.4105 166.409 56.9427 166.254 56.5655 166.042C56.1878 165.832 55.885 165.589 55.6569 165.311C55.4315 165.037 55.2629 164.755 55.1509 164.467L56.1831 163.978C56.2641 164.134 56.3695 164.313 56.4993 164.517C56.6285 164.724 56.8207 164.917 57.076 165.095C57.3339 165.277 57.69 165.407 58.144 165.485C58.7516 165.589 59.2783 165.528 59.724 165.302C60.1697 165.076 60.4464 164.649 60.554 164.022L60.8163 162.493L60.7183 162.477C60.6098 162.599 60.4598 162.748 60.2682 162.924C60.0805 163.097 59.8278 163.237 59.5102 163.344C59.1964 163.448 58.7945 163.458 58.3045 163.374C57.6969 163.27 57.176 163.032 56.7419 162.662C56.311 162.292 56.0022 161.809 55.8154 161.212C55.6319 160.615 55.6074 159.925 55.7419 159.141C55.8742 158.37 56.1249 157.722 56.4942 157.197C56.8639 156.668 57.3175 156.289 57.8547 156.058C58.3926 155.824 58.9784 155.762 59.6121 155.871C60.1021 155.955 60.4768 156.103 60.7362 156.316C60.9995 156.526 61.1903 156.747 61.3085 156.979C61.4305 157.208 61.5228 157.396 61.5853 157.541L61.7029 157.561L61.9081 156.365L63.0253 156.557L61.6969 164.299C61.5859 164.946 61.3487 165.447 60.9852 165.801C60.6244 166.16 60.1811 166.391 59.6553 166.496C59.1323 166.605 58.5702 166.608 57.9691 166.504ZM58.6395 162.362C59.1034 162.442 59.5136 162.403 59.8702 162.245C60.2267 162.088 60.5225 161.824 60.7575 161.454C60.9925 161.084 61.1576 160.622 61.2529 160.066C61.3459 159.524 61.3464 159.032 61.2542 158.589C61.1621 158.146 60.9761 157.779 60.6963 157.489C60.4165 157.199 60.0415 157.014 59.5711 156.933C59.0811 156.849 58.6514 156.903 58.2822 157.095C57.9162 157.288 57.6156 157.579 57.3806 157.969C57.1487 158.36 56.9891 158.81 56.9017 159.32C56.812 159.842 56.8144 160.319 56.9088 160.749C57.007 161.176 57.1982 161.531 57.4823 161.815C57.7703 162.097 58.1561 162.279 58.6395 162.362ZM63.8507 164.447L65.1421 156.92L66.2593 157.112L66.0642 158.249L66.1426 158.262C66.3437 157.913 66.6438 157.654 67.0429 157.483C67.4421 157.313 67.867 157.267 68.3178 157.344C68.4028 157.359 68.5086 157.379 68.6355 157.404C68.7623 157.429 68.8579 157.45 68.9221 157.468L68.7203 158.644C68.6828 158.627 68.5955 158.597 68.4584 158.554C68.3251 158.507 68.1817 158.471 68.0281 158.444C67.6623 158.382 67.3224 158.402 67.0086 158.507C66.6986 158.608 66.4374 158.779 66.2248 159.018C66.0161 159.254 65.8826 159.543 65.8243 159.882L65.0071 164.645L63.8507 164.447ZM71.1692 165.884C70.6923 165.802 70.2748 165.638 69.9169 165.392C69.5596 165.142 69.296 164.826 69.1262 164.444C68.9569 164.058 68.9143 163.621 68.9984 163.131C69.0724 162.699 69.2173 162.364 69.4331 162.126C69.6495 161.884 69.913 161.71 70.2235 161.606C70.5341 161.501 70.8673 161.44 71.2232 161.424C71.5829 161.405 71.9414 161.403 72.2988 161.417C72.7662 161.437 73.1446 161.456 73.4338 161.475C73.7269 161.492 73.9452 161.474 74.0888 161.421C74.2356 161.369 74.325 161.25 74.3569 161.064L74.3636 161.025C74.4466 160.541 74.3788 160.143 74.1601 159.829C73.9447 159.517 73.5708 159.315 73.0384 159.223C72.4863 159.129 72.0327 159.175 71.6776 159.363C71.3226 159.551 71.0578 159.771 70.8833 160.024L69.853 159.444C70.1274 159.02 70.4499 158.709 70.8203 158.51C71.1945 158.308 71.5846 158.19 71.9907 158.156C72.4007 158.119 72.7951 158.132 73.174 158.197C73.4158 158.239 73.6884 158.316 73.9919 158.429C74.2992 158.539 74.5848 158.707 74.8485 158.934C75.1155 159.161 75.3165 159.47 75.4514 159.859C75.5863 160.249 75.6024 160.743 75.4999 161.341L74.649 166.299L73.4926 166.101L73.6675 165.082L73.6087 165.072C73.5023 165.222 73.3416 165.374 73.1268 165.529C72.9119 165.684 72.6413 165.8 72.3151 165.879C71.9889 165.957 71.6069 165.959 71.1692 165.884ZM71.5238 164.875C71.9812 164.954 72.382 164.93 72.7265 164.804C73.0742 164.679 73.3524 164.488 73.5612 164.231C73.7733 163.975 73.9063 163.69 73.9601 163.377L74.1417 162.318C74.0826 162.369 73.9656 162.404 73.7906 162.424C73.6194 162.442 73.4229 162.45 73.2011 162.449C72.9832 162.446 72.7707 162.439 72.5637 162.431C72.3605 162.419 72.1954 162.411 72.0685 162.406C71.7613 162.394 71.4694 162.41 71.1929 162.453C70.9203 162.494 70.6891 162.587 70.4993 162.732C70.3134 162.875 70.1952 163.094 70.1447 163.388C70.0758 163.79 70.1723 164.119 70.4343 164.376C70.7 164.63 71.0632 164.796 71.5238 164.875ZM76.7597 166.662L78.0511 159.135L79.1683 159.327L78.9665 160.503L79.0645 160.52C79.2902 160.145 79.5969 159.876 79.9846 159.714C80.3728 159.549 80.8119 159.508 81.3019 159.592C81.7984 159.677 82.1923 159.861 82.4836 160.143C82.7787 160.422 82.9848 160.779 83.1021 161.212L83.1805 161.226C83.4399 160.87 83.782 160.611 84.2067 160.449C84.6319 160.283 85.1141 160.246 85.6531 160.339C86.326 160.454 86.8403 160.759 87.1959 161.254C87.5521 161.746 87.6543 162.434 87.5024 163.319L86.6381 168.356L85.4817 168.158L86.346 163.121C86.4413 162.566 86.3575 162.143 86.0946 161.852C85.8317 161.561 85.4944 161.381 85.0828 161.31C84.5536 161.219 84.1162 161.309 83.7706 161.579C83.4255 161.846 83.2111 162.223 83.1276 162.71L82.2869 167.61L81.1109 167.408L81.9954 162.253C82.0688 161.825 81.9891 161.457 81.7563 161.148C81.524 160.836 81.189 160.642 80.7513 160.567C80.4507 160.515 80.1561 160.547 79.8673 160.662C79.5817 160.778 79.3345 160.964 79.1257 161.221C78.9207 161.475 78.7866 161.787 78.7232 162.156L77.9161 166.86L76.7597 166.662ZM89.5818 168.942C89.3401 168.901 89.1475 168.779 89.004 168.576C88.8606 168.373 88.8096 168.151 88.8511 167.909C88.8926 167.667 89.0148 167.475 89.2176 167.331C89.4204 167.188 89.6427 167.137 89.8844 167.178C90.1262 167.22 90.3188 167.342 90.4622 167.545C90.6056 167.748 90.6566 167.97 90.6151 168.212C90.5877 168.372 90.5216 168.512 90.4169 168.632C90.3156 168.752 90.1909 168.842 90.043 168.9C89.8988 168.956 89.7451 168.97 89.5818 168.942ZM95.5831 170.053C94.8775 169.932 94.2985 169.661 93.846 169.24C93.3936 168.819 93.0803 168.293 92.9063 167.661C92.7322 167.03 92.7096 166.338 92.8385 165.587C92.9697 164.822 93.2259 164.172 93.6072 163.635C93.9922 163.096 94.4663 162.705 95.0292 162.462C95.596 162.216 96.2191 162.152 96.8986 162.268C97.4277 162.359 97.8879 162.539 98.2789 162.808C98.6699 163.076 98.9708 163.411 99.1814 163.81C99.392 164.209 99.4896 164.65 99.4742 165.131L98.3178 164.933C98.2884 164.575 98.1446 164.237 97.8862 163.921C97.6316 163.601 97.2495 163.398 96.7399 163.31C96.2891 163.233 95.8737 163.283 95.4936 163.46C95.1173 163.634 94.798 163.917 94.5357 164.309C94.2772 164.699 94.0992 165.178 94.0017 165.746C93.9019 166.327 93.9065 166.849 94.0154 167.312C94.1276 167.775 94.3315 168.155 94.6271 168.451C94.9259 168.748 95.304 168.935 95.7613 169.014C96.0618 169.065 96.3436 169.06 96.6065 168.997C96.8694 168.935 97.1027 168.82 97.3062 168.653C97.5096 168.487 97.6709 168.272 97.7898 168.01L98.9462 168.208C98.8047 168.641 98.5743 169.014 98.2551 169.326C97.9398 169.635 97.5535 169.858 97.0962 169.994C96.6428 170.129 96.1384 170.148 95.5831 170.053ZM103.291 171.375C102.611 171.259 102.043 170.995 101.585 170.583C101.131 170.172 100.81 169.651 100.623 169.021C100.438 168.39 100.413 167.687 100.546 166.909C100.681 166.125 100.94 165.465 101.325 164.929C101.713 164.394 102.189 164.008 102.754 163.772C103.322 163.537 103.946 163.477 104.626 163.594C105.305 163.711 105.872 163.974 106.326 164.385C106.784 164.796 107.104 165.319 107.288 165.952C107.475 166.586 107.502 167.295 107.367 168.079C107.234 168.857 106.973 169.512 106.586 170.044C106.202 170.577 105.726 170.961 105.158 171.196C104.592 171.432 103.97 171.492 103.291 171.375ZM103.469 170.336C103.985 170.425 104.432 170.365 104.811 170.158C105.19 169.951 105.496 169.645 105.73 169.241C105.964 168.838 106.124 168.384 106.211 167.881C106.297 167.378 106.297 166.895 106.212 166.434C106.126 165.972 105.94 165.578 105.653 165.253C105.365 164.928 104.964 164.721 104.448 164.633C103.931 164.544 103.484 164.605 103.105 164.816C102.726 165.027 102.419 165.335 102.184 165.742C101.949 166.149 101.789 166.605 101.703 167.108C101.616 167.611 101.616 168.092 101.702 168.55C101.788 169.009 101.975 169.399 102.263 169.721C102.551 170.043 102.953 170.248 103.469 170.336ZM108.493 172.106L109.785 164.58L110.902 164.772L110.7 165.948L110.798 165.964C111.024 165.59 111.33 165.321 111.718 165.159C112.106 164.993 112.545 164.953 113.035 165.037C113.532 165.122 113.926 165.306 114.217 165.588C114.512 165.867 114.718 166.223 114.836 166.657L114.914 166.671C115.173 166.315 115.516 166.056 115.94 165.893C116.366 165.728 116.848 165.691 117.387 165.783C118.06 165.899 118.574 166.204 118.929 166.699C119.286 167.19 119.388 167.879 119.236 168.764L118.372 173.801L117.215 173.603L118.08 168.566C118.175 168.01 118.091 167.587 117.828 167.297C117.565 167.006 117.228 166.826 116.816 166.755C116.287 166.664 115.85 166.754 115.504 167.024C115.159 167.291 114.945 167.668 114.861 168.155L114.02 173.055L112.844 172.853L113.729 167.698C113.802 167.27 113.723 166.902 113.49 166.593C113.258 166.281 112.923 166.087 112.485 166.012C112.184 165.96 111.89 165.992 111.601 166.107C111.315 166.223 111.068 166.409 110.859 166.666C110.654 166.92 110.52 167.232 110.457 167.601L109.65 172.305L108.493 172.106Z" fill="#8C8C8C"/>
</g>
<path d="M128.029 164.643L122.734 176.103L121.675 175.922L126.971 164.462L128.029 164.643Z" fill="#8C8C8C"/>
<g clip-path="url(#clip5_107_30057)">
<path d="M24.9439 172.345L24.7757 173.325L20.8753 172.655L21.0435 171.675L24.9439 172.345ZM22.4897 170.067L23.6461 170.266L22.4152 177.439C22.3592 177.766 22.3645 178.019 22.4312 178.199C22.5018 178.375 22.6074 178.505 22.7481 178.586C22.8927 178.664 23.0499 178.718 23.2198 178.747C23.3472 178.769 23.4528 178.781 23.5368 178.782C23.6212 178.779 23.6888 178.778 23.7395 178.776L23.7964 179.855C23.713 179.871 23.5985 179.882 23.453 179.887C23.3069 179.896 23.1261 179.881 22.9105 179.844C22.5838 179.788 22.2758 179.663 21.9863 179.469C21.7 179.275 21.4787 179.017 21.3222 178.694C21.169 178.372 21.1299 177.992 21.205 177.554L22.4897 170.067ZM27.4869 175.868L26.7101 180.396L25.5537 180.197L27.2755 170.162L28.4319 170.36L27.7997 174.045L27.8977 174.062C28.1408 173.704 28.4584 173.44 28.8504 173.272C29.2463 173.101 29.7398 173.067 30.3311 173.168C30.8439 173.256 31.2755 173.436 31.6256 173.708C31.9763 173.977 32.2217 174.34 32.3617 174.798C32.5056 175.253 32.522 175.804 32.4111 176.451L31.5905 181.233L30.4341 181.034L31.2412 176.331C31.3438 175.733 31.2679 175.244 31.0136 174.864C30.7632 174.481 30.3652 174.243 29.8196 174.15C29.4407 174.085 29.0872 174.106 28.7593 174.215C28.4345 174.324 28.1592 174.517 27.9334 174.794C27.7109 175.072 27.562 175.43 27.4869 175.868ZM36.8348 182.294C36.1096 182.17 35.5115 181.902 35.0405 181.492C34.5733 181.079 34.2472 180.559 34.0622 179.932C33.881 179.302 33.8566 178.602 33.9889 177.831C34.1211 177.06 34.3782 176.405 34.76 175.865C35.1457 175.322 35.6199 174.93 36.1829 174.687C36.7497 174.441 37.3728 174.376 38.0522 174.493C38.4442 174.56 38.8201 174.692 39.1799 174.888C39.5397 175.084 39.8512 175.356 40.1143 175.704C40.378 176.049 40.5618 176.477 40.6656 176.989C40.7694 177.501 40.7611 178.109 40.6405 178.811L40.5565 179.301L34.7549 178.305L34.9264 177.306L39.552 178.099C39.6249 177.675 39.6049 177.281 39.4922 176.919C39.3828 176.557 39.1895 176.253 38.9122 176.007C38.6382 175.762 38.2921 175.603 37.874 175.532C37.4134 175.453 36.9953 175.498 36.6196 175.669C36.2477 175.838 35.9408 176.088 35.6989 176.419C35.457 176.751 35.3005 177.125 35.2293 177.539L35.115 178.206C35.0175 178.774 35.0328 179.273 35.161 179.702C35.293 180.128 35.5177 180.474 35.8352 180.741C36.1533 181.004 36.5459 181.175 37.013 181.255C37.3168 181.307 37.5985 181.312 37.858 181.269C38.1214 181.224 38.3578 181.13 38.5672 180.987C38.7771 180.842 38.9535 180.647 39.0964 180.402L40.1598 180.907C39.9771 181.266 39.7223 181.565 39.3953 181.805C39.0689 182.042 38.6878 182.205 38.252 182.295C37.8168 182.382 37.3444 182.382 36.8348 182.294ZM43.6704 178.645L42.8935 183.172L41.7371 182.974L43.0285 175.447L44.1457 175.639L43.9439 176.815L44.0419 176.832C44.2839 176.48 44.6045 176.219 45.0036 176.049C45.4033 175.875 45.8873 175.837 46.4557 175.935C46.9653 176.022 47.3933 176.203 47.7396 176.478C48.0865 176.749 48.33 177.114 48.47 177.572C48.6106 178.026 48.6259 178.574 48.5161 179.214L47.6955 183.996L46.5391 183.798L47.3462 179.094C47.4477 178.503 47.3732 178.016 47.1227 177.633C46.8728 177.247 46.48 177.008 45.9443 176.916C45.5752 176.853 45.2315 176.876 44.9133 176.987C44.5984 177.097 44.3313 177.292 44.112 177.57C43.8927 177.849 43.7455 178.207 43.6704 178.645ZM52.8393 185.04C52.1599 184.924 51.5915 184.66 51.1341 184.248C50.68 183.837 50.3591 183.317 50.1714 182.686C49.9869 182.056 49.9614 181.352 50.0948 180.574C50.2293 179.79 50.4889 179.13 50.8734 178.594C51.2612 178.059 51.7376 177.673 52.3027 177.437C52.8711 177.202 53.495 177.142 54.1744 177.259C54.8539 177.376 55.4207 177.639 55.8748 178.05C56.3322 178.461 56.6528 178.984 56.8367 179.617C57.0238 180.251 57.0501 180.961 56.9156 181.745C56.7822 182.522 56.5219 183.177 56.1347 183.709C55.7507 184.242 55.2745 184.626 54.7062 184.861C54.1411 185.097 53.5188 185.157 52.8393 185.04ZM53.0176 184.001C53.5337 184.09 53.9811 184.03 54.3597 183.823C54.7383 183.616 55.0446 183.31 55.2787 182.906C55.5127 182.503 55.6729 182.049 55.7592 181.546C55.8455 181.043 55.8459 180.561 55.7604 180.099C55.6749 179.637 55.4885 179.243 55.2012 178.918C54.914 178.593 54.5123 178.386 53.9962 178.298C53.4801 178.209 53.0324 178.27 52.6533 178.481C52.2741 178.692 51.9672 179.001 51.7326 179.408C51.498 179.815 51.3375 180.27 51.2512 180.773C51.1649 181.276 51.1648 181.757 51.2509 182.215C51.3369 182.674 51.5239 183.064 51.8117 183.386C52.0995 183.708 52.5014 183.913 53.0176 184.001ZM58.0419 185.771L59.3332 178.245L60.4896 178.443L59.1983 185.97L58.0419 185.771ZM60.1365 177.091C59.9111 177.053 59.7299 176.943 59.5929 176.761C59.4591 176.58 59.4108 176.382 59.4478 176.166C59.4848 175.951 59.5965 175.78 59.7829 175.654C59.9725 175.528 60.1801 175.485 60.4055 175.523C60.6309 175.562 60.8104 175.672 60.9442 175.853C61.0812 176.035 61.1312 176.233 61.0942 176.449C61.0572 176.664 60.9438 176.835 60.7542 176.96C60.5678 177.086 60.3618 177.13 60.1365 177.091ZM61.3163 186.333L62.6076 178.807L63.7248 178.999L63.5298 180.135L63.6082 180.149C63.8093 179.8 64.1094 179.54 64.5085 179.37C64.9077 179.2 65.3326 179.153 65.7834 179.231C65.8683 179.245 65.9742 179.265 66.1011 179.29C66.2279 179.315 66.3234 179.337 66.3876 179.354L66.1859 180.53C66.1484 180.514 66.061 180.484 65.9239 180.44C65.7907 180.394 65.6473 180.357 65.4937 180.331C65.1279 180.268 64.788 180.289 64.4742 180.393C64.1642 180.495 63.903 180.665 63.6904 180.904C63.4817 181.141 63.3482 181.429 63.2899 181.769L62.4727 186.532L61.3163 186.333ZM69.0363 187.819C68.4091 187.712 67.8825 187.458 67.4567 187.059C67.0314 186.656 66.7331 186.141 66.5618 185.513C66.391 184.882 66.3739 184.168 66.5107 183.371C66.6463 182.58 66.8996 181.917 67.2705 181.382C67.6414 180.847 68.0958 180.463 68.6336 180.229C69.1714 179.995 69.7572 179.933 70.3909 180.041C70.8809 180.125 71.254 180.274 71.5102 180.486C71.7702 180.695 71.9577 180.916 72.0726 181.147C72.1914 181.376 72.2821 181.563 72.3446 181.708L72.4426 181.725L73.0782 178.021L74.2346 178.219L72.5128 188.254L71.3956 188.063L71.594 186.906L71.4568 186.883C71.3483 187.005 71.1977 187.158 71.0051 187.34C70.8129 187.519 70.5575 187.665 70.2388 187.778C69.9206 187.889 69.5197 187.902 69.0363 187.819ZM69.3713 186.807C69.8352 186.887 70.2479 186.833 70.6095 186.646C70.9717 186.456 71.273 186.16 71.5136 185.757C71.7548 185.352 71.9241 184.864 72.0216 184.296C72.118 183.734 72.1207 183.229 72.0297 182.779C71.9392 182.326 71.7541 181.955 71.4743 181.665C71.1951 181.371 70.8203 181.184 70.3499 181.104C69.8599 181.02 69.43 181.075 69.0602 181.271C68.6942 181.464 68.3928 181.76 68.156 182.16C67.9231 182.557 67.7612 183.02 67.6704 183.549C67.5785 184.085 67.5767 184.586 67.6649 185.052C67.757 185.515 67.9426 185.903 68.2217 186.217C68.5046 186.527 68.8878 186.724 69.3713 186.807ZM77.9199 189.343C77.1947 189.219 76.5966 188.952 76.1256 188.541C75.6585 188.128 75.3324 187.608 75.1474 186.981C74.9662 186.352 74.9418 185.651 75.074 184.88C75.2063 184.109 75.4634 183.454 75.8452 182.914C76.2308 182.372 76.7051 181.979 77.2681 181.736C77.8348 181.49 78.458 181.425 79.1374 181.542C79.5294 181.609 79.9053 181.741 80.2651 181.937C80.6249 182.134 80.9363 182.406 81.1995 182.753C81.4632 183.098 81.647 183.526 81.7508 184.038C81.8546 184.551 81.8462 185.158 81.7257 185.86L81.6417 186.35L75.8401 185.355L76.0116 184.355L80.6372 185.149C80.71 184.724 80.6901 184.331 80.5774 183.968C80.468 183.606 80.2746 183.303 79.9974 183.057C79.7234 182.811 79.3773 182.653 78.9592 182.581C78.4986 182.502 78.0804 182.548 77.7047 182.719C77.3329 182.887 77.026 183.137 76.7841 183.469C76.5422 183.801 76.3857 184.174 76.3145 184.589L76.2002 185.255C76.1026 185.823 76.118 186.322 76.2462 186.751C76.3782 187.177 76.6029 187.523 76.9204 187.79C77.2384 188.053 77.631 188.224 78.0982 188.305C78.402 188.357 78.6837 188.361 78.9432 188.318C79.2066 188.273 79.443 188.179 79.6524 188.037C79.8623 187.891 80.0387 187.696 80.1815 187.451L81.2449 187.957C81.0623 188.316 80.8075 188.615 80.4805 188.855C80.1541 189.091 79.773 189.254 79.3372 189.344C78.902 189.431 78.4295 189.431 77.9199 189.343ZM90.039 183.513L85.9644 190.562L84.7885 190.361L83.2966 182.357L84.551 182.572L85.5996 188.926L85.678 188.939L88.7846 183.298L90.039 183.513Z" fill="white"/>
</g>
</g>
</g>
<defs>
<filter id="filter0_d_107_30057" x="-1.99989" y="-1" width="234.941" height="234.941" filterUnits="userSpaceOnUse" color-interpolation-filters="sRGB">
<feFlood flood-opacity="0" result="BackgroundImageFix"/>
<feColorMatrix in="SourceAlpha" type="matrix" values="0 0 0 0 0 0 0 0 0 0 0 0 0 0 0 0 0 0 127 0" result="hardAlpha"/>
<feOffset dy="1"/>
<feGaussianBlur stdDeviation="1"/>
<feComposite in2="hardAlpha" operator="out"/>
<feColorMatrix type="matrix" values="0 0 0 0 0 0 0 0 0 0 0 0 0 0 0 0 0 0 0.1 0"/>
<feBlend mode="normal" in2="BackgroundImageFix" result="effect1_dropShadow_107_30057"/>
<feBlend mode="normal" in="SourceGraphic" in2="effect1_dropShadow_107_30057" result="shape"/>
</filter>
<linearGradient id="paint0_linear_107_30057" x1="50.3377" y1="38.1183" x2="60.3836" y2="20.7911" gradientUnits="userSpaceOnUse">
<stop stop-color="#FFD521"/>
<stop offset="0.170213" stop-color="#FF5D12"/>
<stop offset="0.489362" stop-color="#FD1A8E"/>
<stop offset="0.648936" stop-color="#B500C2"/>
<stop offset="1" stop-color="#FF00CC"/>
</linearGradient>
<linearGradient id="paint1_linear_107_30057" x1="51.4253" y1="32.5253" x2="58.472" y2="27.6185" gradientUnits="userSpaceOnUse">
<stop stop-color="#FE610B"/>
<stop offset="1" stop-color="#FF10A6"/>
</linearGradient>
<clipPath id="clip0_107_30057">
<rect x="33.8214" width="200" height="200" rx="24" transform="rotate(9.7359 33.8214 0)" fill="white"/>
</clipPath>
<clipPath id="clip1_107_30057">
<rect width="20" height="20" fill="white" transform="translate(46.8854 18.4751) rotate(9.7359)"/>
</clipPath>
<clipPath id="clip2_107_30057">
<rect width="20" height="20" fill="white" transform="translate(46.8854 18.4751) rotate(9.7359)"/>
</clipPath>
<clipPath id="clip3_107_30057">
<rect width="20" height="20" fill="white" transform="translate(46.8854 18.4751) rotate(9.7359)"/>
</clipPath>
<clipPath id="clip4_107_30057">
<rect width="98" height="20" fill="white" transform="translate(25.5777 142.661) rotate(9.7359)"/>
</clipPath>
<clipPath id="clip5_107_30057">
<rect width="71" height="20" fill="white" transform="translate(21.8575 164.344) rotate(9.7359)"/>
</clipPath>
</defs>
</svg>
