<svg width="116" height="112" viewBox="0 0 116 112" fill="none" xmlns="http://www.w3.org/2000/svg">
<path d="M83.1055 109.717C80.599 110.921 78.0762 111.523 75.5371 111.523C72.6725 111.523 69.8242 110.824 66.9922 109.424C64.1927 108.024 61.3444 106.169 58.4473 103.857C55.8431 101.807 53.1576 99.6094 50.3906 97.2656C47.6237 94.9219 44.7103 93.0176 41.6504 91.5527C38.5254 90.0228 35.2214 88.9323 31.7383 88.2812C28.2552 87.6302 24.9023 86.9303 21.6797 86.1816C16.4388 85.0098 12.0443 83.2845 8.49609 81.0059C4.94792 78.6947 2.63672 75.2279 1.5625 70.6055C0.520833 66.0156 1.10677 61.8978 3.32031 58.252C5.56641 54.6061 8.77279 51.1556 12.9395 47.9004C15.5111 45.8171 18.2292 43.7174 21.0938 41.6016C23.9583 39.4531 26.4811 37.028 28.6621 34.3262C30.778 31.6243 32.5521 28.6458 33.9844 25.3906C35.4167 22.1354 36.8327 19.043 38.2324 16.1133C40.5436 11.263 43.2129 7.37305 46.2402 4.44336C49.3001 1.48112 53.1901 0 57.9102 0C62.6302 0 66.5039 1.48112 69.5312 4.44336C72.5911 7.37305 75.2767 11.2467 77.5879 16.0645C78.9876 19.0267 80.3874 22.1517 81.7871 25.4395C83.2194 28.6947 84.9935 31.6569 87.1094 34.3262C89.2904 36.9954 91.8132 39.4043 94.6777 41.5527C97.5749 43.7012 100.309 45.8171 102.881 47.9004C107.08 51.1556 110.286 54.6061 112.5 58.252C114.714 61.8978 115.299 66.0156 114.258 70.6055C113.184 75.2279 110.856 78.6947 107.275 81.0059C103.727 83.2845 99.3327 85.0098 94.0918 86.1816C90.9017 86.9303 87.5651 87.6302 84.082 88.2812C80.599 88.9323 77.2949 90.0065 74.1699 91.5039C71.11 93.0013 68.1966 94.9219 65.4297 97.2656C62.6628 99.6094 59.9609 101.79 57.3242 103.809C54.4271 106.12 51.5625 107.975 48.7305 109.375C45.931 110.807 43.099 111.523 40.2344 111.523C37.6953 111.523 35.2051 110.938 32.7637 109.766C28.4342 107.715 25.5534 104.704 24.1211 100.732C22.6888 96.7611 21.9727 92.0898 21.9727 86.7188C21.9727 83.4635 22.0378 80.0456 22.168 76.4648C22.3307 72.8841 22.0215 69.4173 21.2402 66.0645C20.4915 62.7116 19.2708 59.4564 17.5781 56.2988C15.8854 53.1087 14.3392 50.0163 12.9395 47.0215C10.6283 42.3014 9.26107 37.8255 8.83789 33.5938C8.41471 29.362 9.68424 25.4069 12.6465 21.7285C15.5762 18.0176 19.1406 15.9017 23.3398 15.3809C27.5716 14.8275 32.3079 15.1693 37.5488 16.4062C40.7389 17.1549 44.0592 17.985 47.5098 18.8965C50.9928 19.7754 54.4596 20.2148 57.9102 20.2148C61.3281 20.2148 64.7786 19.7754 68.2617 18.8965C71.7448 17.985 75.0977 17.1549 78.3203 16.4062C83.5286 15.1693 88.2324 14.8275 92.4316 15.3809C96.6309 15.9017 100.212 18.0176 103.174 21.7285C106.104 25.4395 107.357 29.4108 106.934 33.6426C106.543 37.8418 105.176 42.3177 102.832 47.0703C101.432 50.0326 99.8861 53.1087 98.1934 56.2988C96.5007 59.4564 95.2962 62.679 94.5801 65.9668C93.7988 69.3522 93.4733 72.8516 93.6035 76.4648C93.7663 80.0456 93.8477 83.4635 93.8477 86.7188C93.8477 92.0898 93.1152 96.7611 91.6504 100.732C90.2181 104.704 87.3698 107.699 83.1055 109.717ZM78.5645 100.342C80.2246 99.528 81.3802 98.4049 82.0312 96.9727C82.6823 95.5404 83.0566 93.9453 83.1543 92.1875C83.252 90.4297 83.3171 88.6556 83.3496 86.8652C83.3496 83.1868 83.3008 79.3294 83.2031 75.293C83.1055 71.2565 83.4798 67.3828 84.3262 63.6719C85.14 60.026 86.4583 56.4128 88.2812 52.832C90.1042 49.2188 91.8457 45.7031 93.5059 42.2852C94.222 40.7227 94.9056 39.1439 95.5566 37.5488C96.2402 35.9212 96.5983 34.3262 96.6309 32.7637C96.696 31.2012 96.1263 29.7038 94.9219 28.2715C93.7826 26.8392 92.4479 25.9603 90.918 25.6348C89.388 25.2767 87.7604 25.2441 86.0352 25.5371C84.3099 25.8301 82.5846 26.1719 80.8594 26.5625C77.2461 27.4089 73.4701 28.3203 69.5312 29.2969C65.5924 30.2409 61.7188 30.7129 57.9102 30.7129C54.1016 30.7129 50.2279 30.2409 46.2891 29.2969C42.3503 28.3203 38.5742 27.4089 34.9609 26.5625C33.2357 26.2044 31.5104 25.8789 29.7852 25.5859C28.0599 25.293 26.4323 25.3092 24.9023 25.6348C23.3724 25.9603 22.0052 26.8555 20.8008 28.3203C19.6615 29.7526 19.1081 31.25 19.1406 32.8125C19.2057 34.3424 19.5638 35.9212 20.2148 37.5488C20.8984 39.1439 21.6146 40.7389 22.3633 42.334C23.9909 45.752 25.6999 49.2513 27.4902 52.832C29.3132 56.4128 30.6315 60.0098 31.4453 63.623C32.2917 67.3665 32.666 71.2565 32.5684 75.293C32.5033 79.3294 32.4707 83.1868 32.4707 86.8652C32.5033 88.6556 32.5684 90.4297 32.666 92.1875C32.7637 93.9453 33.138 95.5404 33.7891 96.9727C34.4401 98.4049 35.5957 99.528 37.2559 100.342C38.9486 101.123 40.5436 101.318 42.041 100.928C43.5384 100.57 45.0033 99.8861 46.4355 98.877C47.8678 97.8678 49.2839 96.8262 50.6836 95.752C53.5482 93.4733 56.5592 91.0319 59.7168 88.4277C62.9069 85.8236 66.1784 83.724 69.5312 82.1289C73.0143 80.4362 76.7415 79.1667 80.7129 78.3203C84.6842 77.474 88.4277 76.6764 91.9434 75.9277C93.6686 75.5046 95.3776 75.0651 97.0703 74.6094C98.763 74.1211 100.228 73.4049 101.465 72.4609C102.734 71.5169 103.581 70.1172 104.004 68.2617C104.427 66.4388 104.281 64.8438 103.564 63.4766C102.848 62.0768 101.839 60.791 100.537 59.6191C99.235 58.4473 97.8841 57.3079 96.4844 56.2012C93.5872 53.89 90.5273 51.5137 87.3047 49.0723C84.1146 46.5983 81.3314 43.8639 78.9551 40.8691C76.5788 37.9069 74.5605 34.6029 72.9004 30.957C71.2728 27.3112 69.6452 23.8281 68.0176 20.5078C67.2689 18.9128 66.4551 17.3503 65.5762 15.8203C64.7298 14.2578 63.7044 12.9883 62.5 12.0117C61.2956 11.0026 59.7656 10.498 57.9102 10.498C56.0221 10.498 54.4759 11.0026 53.2715 12.0117C52.0671 12.9883 51.0417 14.2578 50.1953 15.8203C49.349 17.3503 48.5352 18.9128 47.7539 20.5078C46.1589 23.8281 44.5312 27.3275 42.8711 31.0059C41.2435 34.6517 39.2253 37.9395 36.8164 40.8691C34.4727 43.8314 31.6895 46.5495 28.4668 49.0234C25.2767 51.4974 22.2331 53.89 19.3359 56.2012C17.9362 57.3079 16.5853 58.4473 15.2832 59.6191C13.9811 60.791 12.972 62.0768 12.2559 63.4766C11.5723 64.8438 11.4258 66.4388 11.8164 68.2617C12.2396 70.1172 13.0697 71.5169 14.3066 72.4609C15.5762 73.4049 17.041 74.1211 18.7012 74.6094C20.3939 75.0651 22.1029 75.5046 23.8281 75.9277C27.4414 76.7415 31.2174 77.5553 35.1562 78.3691C39.0951 79.1829 42.7897 80.4199 46.2402 82.0801C49.6257 83.7077 52.8809 85.8073 56.0059 88.3789C59.1309 90.9505 62.1582 93.3919 65.0879 95.7031C66.5202 96.8099 67.9362 97.8678 69.3359 98.877C70.7357 99.8861 72.2005 100.586 73.7305 100.977C75.2604 101.367 76.8717 101.156 78.5645 100.342Z" fill="white"/>
</svg>
