<svg width="237" height="237" viewBox="0 0 237 237" fill="none" xmlns="http://www.w3.org/2000/svg">
<g filter="url(#filter0_d_107_30014)">
<g clip-path="url(#clip0_107_30014)">
<rect y="41.0217" width="200" height="200" rx="24" transform="rotate(-11.8359 0 41.0217)" fill="#171717"/>
<mask id="mask0_107_30014" style="mask-type:alpha" maskUnits="userSpaceOnUse" x="18" y="49" width="25" height="24">
<g clip-path="url(#clip1_107_30014)">
<g clip-path="url(#clip2_107_30014)">
<path d="M28.1589 59.1513C27.7733 59.0033 26.4852 58.4783 26.4852 58.4783C27.1593 56.9557 28.3059 56.1769 30.0412 55.8133C31.2676 55.5563 32.394 55.7391 33.297 56.3427C34.2001 56.9464 34.8515 57.944 35.2397 59.3135C35.6878 59.3943 36.1099 59.5122 36.5028 59.6659C38.0885 60.2848 39.1425 61.4872 39.4703 63.0512C40.1664 66.373 37.9701 69.8464 32.8993 70.909C28.5448 71.8216 23.506 70.3069 21.9696 62.9751C20.4417 55.6845 24.3008 52.2765 28.7844 51.3369C30.8544 50.9031 35.7733 50.1829 38.8282 55.6628L37.206 56.4544C34.9193 52.5729 31.8191 52.5278 29.1041 53.0967C24.6176 54.037 22.6364 57.2251 23.8209 62.8773C24.8827 67.9443 28.2834 70.0424 32.5311 69.1522C36.0262 68.4197 38.2616 66.1081 37.7199 63.5233C37.3511 61.7635 35.6547 61.2403 35.5764 61.2567C35.5961 62.8281 35.3325 65.5337 31.8384 66.2659C29.8026 66.6925 27.7612 65.693 27.3858 63.9019C26.8499 61.3445 29.1516 59.8955 31.1228 59.4825C31.8608 59.3278 32.7615 59.1891 33.2447 59.1839C33.0814 58.4048 32.1236 57.2129 30.4098 57.5721C28.8387 57.9003 28.5444 58.48 28.1589 59.1513ZM31.7297 61.1791C29.1625 61.7171 29.0526 62.8507 29.1927 63.5192C29.4179 64.5938 30.8049 64.674 31.5057 64.5272C32.7888 64.2583 34.0347 63.6365 33.6932 60.9729C33.0126 60.9674 32.5166 61.0141 31.7297 61.1791Z" fill="black"/>
</g>
</g>
</mask>
<g mask="url(#mask0_107_30014)">
<rect x="18.9414" y="53.3997" width="20" height="20" transform="rotate(-11.8359 18.9414 53.3997)" fill="white"/>
</g>
<path d="M179.824 24.3671L171.443 37.1921M179.824 24.3671L171.668 26.0763M179.824 24.3671L181.533 32.5233" stroke="#8C8C8C" stroke-width="1.66667" stroke-linecap="round" stroke-linejoin="round"/>
<mask id="path-5-inside-1_107_30014" fill="white">
<path d="M4.92261 64.5115C2.20393 51.5384 10.5167 38.8178 23.4897 36.0991L172.258 4.92261C185.231 2.20393 197.952 10.5167 200.67 23.4897L231.847 172.258C234.566 185.231 226.253 197.952 213.28 200.67L64.5115 231.847C51.5384 234.566 38.8178 226.253 36.0991 213.28L4.92261 64.5115Z"/>
</mask>
<path d="M4.92261 64.5115C2.09065 50.9979 10.7498 37.7472 24.2634 34.9153L171.074 4.14898C184.588 1.31702 197.838 9.97617 200.67 23.4897C198.065 11.0573 185.436 3.18266 172.463 5.90135L23.6948 37.0779C10.7218 39.7965 2.3172 52.079 4.92261 64.5115ZM4.92261 64.5115M236.77 195.748L41.0217 236.77L236.77 195.748M236.77 195.748M41.0217 236.77L0 41.0217L41.0217 236.77M41.0217 236.77M195.748 0L236.77 195.748L195.748 0" fill="#292929" mask="url(#path-5-inside-1_107_30014)"/>
<g clip-path="url(#clip3_107_30014)">
<path d="M55.1096 204.559L55.3136 205.532L51.4403 206.344L51.2364 205.371L55.1096 204.559ZM51.99 203.343L53.1384 203.103L54.6312 210.226C54.6992 210.551 54.7972 210.784 54.9253 210.927C55.0559 211.065 55.2016 211.146 55.3624 211.17C55.5258 211.19 55.6918 211.183 55.8605 211.147C55.987 211.121 56.0894 211.092 56.1678 211.062C56.2455 211.029 56.3077 211.003 56.3543 210.983L56.804 211.965C56.7323 212.011 56.6297 212.063 56.4964 212.121C56.3637 212.183 56.1903 212.236 55.9762 212.281C55.6518 212.349 55.3193 212.346 54.9786 212.272C54.6412 212.197 54.3404 212.038 54.0762 211.795C53.8153 211.552 53.6392 211.213 53.5482 210.778L51.99 203.343ZM58.77 206.9L59.7122 211.397L58.5639 211.637L56.4755 201.672L57.6239 201.431L58.3907 205.09L58.488 205.07C58.5823 204.647 58.7808 204.286 59.0836 203.985C59.3889 203.681 59.8351 203.467 60.4223 203.344C60.9316 203.237 61.399 203.246 61.8246 203.37C62.2496 203.491 62.6113 203.739 62.9099 204.113C63.211 204.483 63.4288 204.989 63.5634 205.632L64.5587 210.381L63.4103 210.622L62.4314 205.95C62.307 205.357 62.0567 204.93 61.6806 204.67C61.307 204.406 60.8493 204.331 60.3076 204.445C59.9313 204.524 59.6106 204.674 59.3454 204.895C59.0835 205.116 58.8986 205.397 58.7906 205.738C58.6858 206.078 58.6789 206.466 58.77 206.9ZM66.6595 209.941L65.0932 202.467L66.2027 202.234L66.4392 203.363L66.5171 203.347C66.5758 202.948 66.7595 202.597 67.0681 202.292C67.3766 201.986 67.7547 201.787 68.2024 201.693C68.2867 201.675 68.3925 201.655 68.5197 201.632C68.6469 201.608 68.7436 201.593 68.8098 201.586L69.0546 202.754C69.0136 202.752 68.9213 202.756 68.7778 202.766C68.6368 202.772 68.49 202.791 68.3376 202.823C67.9743 202.899 67.6658 203.043 67.4123 203.256C67.1614 203.464 66.981 203.718 66.8714 204.019C66.7642 204.316 66.746 204.633 66.8167 204.97L67.8079 209.7L66.6595 209.941ZM74.6965 208.419C73.9764 208.57 73.3219 208.541 72.733 208.333C72.1466 208.12 71.6522 207.757 71.2497 207.241C70.8497 206.723 70.5695 206.08 70.409 205.315C70.2486 204.549 70.2467 203.845 70.4033 203.203C70.5625 202.556 70.8591 202.017 71.2933 201.584C71.73 201.147 72.2857 200.858 72.9605 200.716C73.3497 200.635 73.7477 200.619 74.1545 200.669C74.5612 200.72 74.9509 200.858 75.3235 201.085C75.6954 201.308 76.0238 201.639 76.3086 202.077C76.5934 202.515 76.8089 203.083 76.9551 203.78L77.0571 204.267L71.2958 205.474L71.0878 204.482L75.6812 203.519C75.5928 203.097 75.4296 202.739 75.1916 202.443C74.9568 202.147 74.6653 201.935 74.317 201.809C73.972 201.681 73.5919 201.661 73.1766 201.748C72.7192 201.844 72.3473 202.04 72.0607 202.337C71.7768 202.631 71.5833 202.976 71.4803 203.373C71.3774 203.771 71.3691 204.175 71.4554 204.587L71.5941 205.249C71.7124 205.814 71.91 206.272 72.1869 206.623C72.4663 206.971 72.8026 207.211 73.1958 207.342C73.5883 207.469 74.0165 207.485 74.4804 207.387C74.782 207.324 75.0457 207.225 75.2713 207.09C75.4995 206.95 75.6848 206.776 75.8272 206.567C75.9689 206.354 76.0612 206.108 76.1041 205.828L77.2788 205.907C77.2409 206.308 77.114 206.68 76.8981 207.023C76.6815 207.363 76.3871 207.655 76.0149 207.899C75.6421 208.139 75.2026 208.313 74.6965 208.419ZM81.7416 206.963C81.268 207.062 80.8194 207.063 80.396 206.965C79.9719 206.865 79.6106 206.668 79.3122 206.375C79.0131 206.078 78.8125 205.687 78.7105 205.2C78.6208 204.772 78.6324 204.407 78.7453 204.106C78.8576 203.802 79.0389 203.543 79.2891 203.332C79.5394 203.12 79.827 202.941 80.152 202.795C80.4795 202.646 80.8121 202.511 81.1497 202.393C81.5916 202.24 81.9506 202.119 82.2267 202.03C82.5054 201.938 82.7018 201.841 82.8159 201.739C82.9333 201.637 82.9726 201.493 82.9338 201.308L82.9257 201.269C82.8251 200.789 82.6155 200.444 82.297 200.233C81.9817 200.021 81.5597 199.971 81.031 200.082C80.4827 200.196 80.0781 200.407 79.817 200.712C79.5559 201.017 79.3906 201.319 79.3212 201.618L78.1496 201.458C78.2491 200.963 78.4345 200.555 78.7059 200.234C78.9798 199.909 79.2993 199.655 79.6642 199.474C80.0317 199.289 80.4036 199.157 80.7799 199.078C81.02 199.027 81.3018 198.999 81.6255 198.992C81.9517 198.981 82.2792 199.033 82.6078 199.147C82.9397 199.26 83.24 199.473 83.5088 199.786C83.7775 200.099 83.9741 200.552 84.0985 201.146L85.1304 206.07L83.9821 206.31L83.77 205.298L83.7116 205.311C83.6677 205.489 83.5743 205.69 83.4314 205.913C83.2885 206.136 83.0798 206.344 82.8053 206.537C82.5308 206.73 82.1763 206.872 81.7416 206.963ZM81.7006 205.895C82.1547 205.799 82.5188 205.63 82.7928 205.386C83.0701 205.142 83.2586 204.862 83.3584 204.546C83.4615 204.23 83.4804 203.916 83.4151 203.605L83.1949 202.554C83.1584 202.623 83.0626 202.699 82.9074 202.782C82.7547 202.861 82.575 202.941 82.3684 203.022C82.1644 203.098 81.9645 203.171 81.7688 203.239C81.5757 203.303 81.4192 203.356 81.2993 203.398C81.009 203.5 80.7433 203.621 80.5022 203.763C80.2636 203.901 80.0828 204.073 79.9599 204.278C79.8395 204.48 79.8099 204.726 79.8711 205.018C79.9547 205.417 80.1656 205.688 80.5036 205.83C80.8442 205.969 81.2432 205.99 81.7006 205.895ZM90.0813 205.195C89.4584 205.325 88.8756 205.283 88.3328 205.069C87.7893 204.851 87.3225 204.481 86.9322 203.96C86.5413 203.436 86.2629 202.778 86.097 201.986C85.9325 201.201 85.9244 200.492 86.0726 199.858C86.2208 199.224 86.502 198.7 86.9162 198.284C87.3304 197.869 87.8521 197.596 88.4814 197.464C88.968 197.362 89.3694 197.362 89.6856 197.465C90.0044 197.564 90.2598 197.701 90.4519 197.874C90.6465 198.043 90.7996 198.183 90.9111 198.296L91.0084 198.275L90.2375 194.597L91.3859 194.356L93.4742 204.321L92.3648 204.554L92.1242 203.405L91.9879 203.434C91.9321 203.588 91.8481 203.785 91.7359 204.025C91.623 204.262 91.4392 204.492 91.1845 204.715C90.9291 204.934 90.5614 205.094 90.0813 205.195ZM90.0208 204.131C90.4814 204.034 90.8456 203.832 91.1132 203.526C91.3801 203.216 91.5514 202.83 91.6271 202.367C91.7021 201.901 91.6805 201.385 91.5622 200.821C91.4453 200.263 91.2619 199.792 91.012 199.407C90.7614 199.019 90.4527 198.742 90.0858 198.575C89.7183 198.405 89.301 198.369 88.8339 198.467C88.3473 198.569 87.9679 198.779 87.6959 199.096C87.4264 199.41 87.2551 199.797 87.182 200.256C87.1114 200.711 87.1312 201.201 87.2413 201.726C87.3528 202.258 87.5352 202.725 87.7885 203.125C88.0443 203.522 88.3597 203.815 88.7345 204.004C89.1119 204.189 89.5407 204.231 90.0208 204.131ZM99.8155 196.937L98.8451 197.446C98.7442 197.287 98.6135 197.14 98.453 197.005C98.295 196.865 98.0978 196.764 97.8612 196.702C97.6247 196.64 97.3394 196.644 97.0053 196.714C96.5479 196.81 96.1888 196.995 95.9281 197.27C95.6699 197.54 95.5744 197.836 95.6417 198.158C95.7016 198.443 95.8526 198.647 96.0949 198.769C96.3372 198.891 96.6905 198.96 97.1548 198.978L98.3213 199.018C99.0235 199.04 99.5735 199.184 99.9711 199.45C100.368 199.712 100.621 200.104 100.731 200.626C100.82 201.055 100.777 201.463 100.602 201.852C100.429 202.241 100.144 202.578 99.747 202.864C99.3499 203.151 98.861 203.355 98.2803 203.477C97.518 203.636 96.8524 203.603 96.2835 203.377C95.7146 203.151 95.297 202.734 95.0307 202.126L96.0636 201.625C96.2517 202.005 96.5112 202.266 96.842 202.407C97.1761 202.546 97.5784 202.567 98.0487 202.469C98.584 202.356 98.9851 202.154 99.2522 201.861C99.5219 201.564 99.623 201.255 99.5557 200.934C99.5013 200.674 99.365 200.476 99.1466 200.339C98.9275 200.198 98.6207 200.124 98.226 200.115L96.9192 200.084C96.2007 200.065 95.6452 199.919 95.2527 199.646C94.8627 199.369 94.6137 198.972 94.5056 198.457C94.4173 198.035 94.4575 197.637 94.6263 197.263C94.7984 196.888 95.071 196.565 95.4442 196.294C95.8207 196.022 96.2717 195.831 96.7972 195.721C97.5368 195.566 98.1515 195.607 98.6412 195.843C99.1341 196.078 99.5256 196.443 99.8155 196.937ZM103.749 202.249C103.509 202.3 103.285 202.257 103.077 202.121C102.869 201.985 102.74 201.797 102.69 201.557C102.639 201.317 102.682 201.093 102.818 200.885C102.954 200.677 103.142 200.548 103.382 200.498C103.622 200.447 103.846 200.49 104.054 200.626C104.262 200.762 104.391 200.95 104.441 201.19C104.475 201.349 104.465 201.503 104.411 201.653C104.362 201.803 104.279 201.932 104.163 202.041C104.049 202.146 103.911 202.215 103.749 202.249ZM109.738 201.075C109.038 201.222 108.4 201.183 107.824 200.958C107.249 200.734 106.764 200.359 106.37 199.836C105.976 199.312 105.7 198.677 105.544 197.931C105.385 197.172 105.384 196.473 105.541 195.834C105.701 195.191 105.998 194.653 106.432 194.22C106.869 193.783 107.425 193.494 108.099 193.352C108.625 193.242 109.119 193.24 109.582 193.347C110.044 193.453 110.447 193.653 110.789 193.947C111.132 194.241 111.385 194.615 111.547 195.068L110.399 195.309C110.24 194.986 109.982 194.726 109.625 194.526C109.271 194.323 108.841 194.274 108.335 194.38C107.887 194.474 107.519 194.673 107.231 194.977C106.945 195.277 106.752 195.658 106.653 196.119C106.555 196.577 106.566 197.087 106.684 197.652C106.805 198.229 107.001 198.713 107.273 199.103C107.547 199.493 107.877 199.771 108.26 199.937C108.647 200.104 109.068 200.139 109.522 200.044C109.821 199.981 110.081 199.873 110.302 199.718C110.524 199.563 110.698 199.371 110.826 199.141C110.954 198.911 111.025 198.652 111.039 198.365L112.188 198.124C112.215 198.579 112.138 199.01 111.956 199.417C111.776 199.82 111.499 200.17 111.124 200.465C110.752 200.756 110.29 200.96 109.738 201.075ZM117.392 199.471C116.718 199.613 116.092 199.576 115.515 199.362C114.942 199.147 114.452 198.78 114.046 198.263C113.642 197.745 113.36 197.099 113.198 196.327C113.035 195.549 113.034 194.84 113.194 194.2C113.358 193.559 113.659 193.025 114.098 192.598C114.54 192.17 115.098 191.886 115.773 191.744C116.448 191.603 117.072 191.64 117.645 191.855C118.222 192.069 118.712 192.437 119.116 192.959C119.523 193.48 119.808 194.129 119.971 194.908C120.133 195.68 120.132 196.385 119.967 197.022C119.806 197.658 119.505 198.191 119.063 198.619C118.624 199.046 118.067 199.33 117.392 199.471ZM117.176 198.44C117.689 198.332 118.083 198.113 118.359 197.781C118.634 197.448 118.807 197.052 118.876 196.59C118.945 196.129 118.928 195.648 118.823 195.149C118.718 194.649 118.541 194.2 118.292 193.802C118.043 193.404 117.725 193.106 117.338 192.91C116.951 192.713 116.502 192.669 115.989 192.776C115.477 192.883 115.083 193.105 114.808 193.44C114.533 193.775 114.361 194.175 114.292 194.64C114.224 195.105 114.242 195.587 114.346 196.087C114.451 196.586 114.628 197.033 114.876 197.428C115.125 197.823 115.442 198.117 115.828 198.311C116.214 198.504 116.664 198.547 117.176 198.44ZM122.499 198.239L120.933 190.765L122.042 190.532L122.287 191.7L122.384 191.68C122.457 191.248 122.643 190.885 122.944 190.592C123.244 190.296 123.637 190.096 124.124 189.994C124.617 189.891 125.051 189.917 125.426 190.072C125.803 190.223 126.125 190.479 126.394 190.839L126.472 190.823C126.582 190.397 126.805 190.03 127.14 189.723C127.475 189.412 127.91 189.201 128.445 189.089C129.113 188.949 129.704 189.043 130.216 189.373C130.728 189.699 131.076 190.302 131.261 191.181L132.309 196.183L131.161 196.424L130.112 191.421C129.997 190.87 129.763 190.507 129.412 190.334C129.061 190.16 128.681 190.116 128.272 190.202C127.746 190.312 127.373 190.556 127.15 190.935C126.928 191.31 126.867 191.739 126.968 192.222L127.988 197.088L126.82 197.333L125.747 192.214C125.658 191.789 125.449 191.476 125.119 191.274C124.788 191.069 124.405 191.012 123.97 191.103C123.672 191.166 123.41 191.304 123.183 191.517C122.961 191.73 122.799 191.994 122.699 192.309C122.602 192.621 122.592 192.96 122.669 193.327L123.648 197.998L122.499 198.239Z" fill="#8C8C8C"/>
</g>
<path d="M136.976 184.314L136.265 196.918L135.214 197.139L135.925 184.535L136.976 184.314Z" fill="#8C8C8C"/>
<g clip-path="url(#clip4_107_30014)">
<path d="M143.196 186.099L143.4 187.072L139.527 187.884L139.323 186.911L143.196 186.099ZM140.076 184.883L141.225 184.643L142.718 191.766C142.786 192.091 142.884 192.324 143.012 192.467C143.142 192.605 143.288 192.686 143.449 192.71C143.612 192.73 143.778 192.723 143.947 192.687C144.073 192.661 144.176 192.632 144.254 192.602C144.332 192.569 144.394 192.543 144.441 192.523L144.89 193.505C144.819 193.551 144.716 193.603 144.583 193.661C144.45 193.723 144.277 193.776 144.063 193.821C143.738 193.889 143.406 193.886 143.065 193.812C142.728 193.737 142.427 193.578 142.163 193.335C141.902 193.092 141.726 192.753 141.635 192.318L140.076 184.883ZM146.856 188.44L147.799 192.937L146.65 193.177L144.562 183.212L145.71 182.971L146.477 186.63L146.574 186.61C146.669 186.187 146.867 185.826 147.17 185.525C147.475 185.221 147.922 185.007 148.509 184.884C149.018 184.777 149.485 184.786 149.911 184.91C150.336 185.031 150.698 185.279 150.996 185.653C151.297 186.023 151.515 186.53 151.65 187.172L152.645 191.921L151.497 192.162L150.518 187.49C150.393 186.897 150.143 186.47 149.767 186.21C149.393 185.946 148.936 185.871 148.394 185.985C148.018 186.064 147.697 186.214 147.432 186.435C147.17 186.656 146.985 186.937 146.877 187.278C146.772 187.618 146.765 188.006 146.856 188.44ZM157.912 190.98C157.192 191.131 156.538 191.102 155.949 190.893C155.362 190.681 154.868 190.317 154.465 189.802C154.065 189.283 153.785 188.641 153.625 187.875C153.464 187.11 153.462 186.406 153.619 185.764C153.778 185.117 154.075 184.578 154.509 184.145C154.946 183.708 155.501 183.419 156.176 183.277C156.565 183.196 156.963 183.18 157.37 183.23C157.777 183.28 158.167 183.419 158.539 183.645C158.911 183.869 159.239 184.2 159.524 184.638C159.809 185.076 160.025 185.644 160.171 186.341L160.273 186.828L154.512 188.035L154.303 187.042L158.897 186.08C158.809 185.658 158.645 185.299 158.407 185.004C158.173 184.708 157.881 184.496 157.533 184.369C157.188 184.242 156.808 184.222 156.392 184.309C155.935 184.405 155.563 184.601 155.276 184.898C154.992 185.191 154.799 185.537 154.696 185.934C154.593 186.332 154.585 186.736 154.671 187.148L154.81 187.81C154.928 188.374 155.126 188.833 155.403 189.184C155.682 189.532 156.018 189.771 156.411 189.902C156.804 190.03 157.232 190.045 157.696 189.948C157.998 189.885 158.261 189.786 158.487 189.65C158.715 189.511 158.9 189.337 159.043 189.127C159.185 188.915 159.277 188.669 159.32 188.389L160.494 188.468C160.457 188.868 160.33 189.24 160.114 189.584C159.897 189.924 159.603 190.216 159.231 190.46C158.858 190.7 158.418 190.874 157.912 190.98ZM162.927 185.073L163.869 189.569L162.721 189.809L161.155 182.335L162.264 182.103L162.509 183.271L162.606 183.25C162.702 182.834 162.904 182.473 163.213 182.168C163.521 181.86 163.957 181.647 164.521 181.528C165.027 181.422 165.492 181.433 165.915 181.561C166.337 181.686 166.698 181.936 166.996 182.31C167.294 182.681 167.51 183.184 167.643 183.82L168.638 188.569L167.49 188.81L166.511 184.139C166.388 183.552 166.139 183.126 165.766 182.862C165.392 182.595 164.938 182.518 164.406 182.629C164.04 182.706 163.729 182.854 163.473 183.074C163.221 183.292 163.044 183.572 162.943 183.911C162.841 184.251 162.836 184.638 162.927 185.073ZM173.805 187.649C173.131 187.79 172.505 187.754 171.928 187.54C171.355 187.324 170.865 186.958 170.459 186.44C170.055 185.922 169.773 185.277 169.611 184.505C169.448 183.726 169.447 183.017 169.607 182.377C169.771 181.737 170.072 181.203 170.511 180.776C170.953 180.348 171.511 180.063 172.186 179.922C172.861 179.781 173.485 179.817 174.058 180.033C174.635 180.247 175.125 180.615 175.529 181.136C175.936 181.657 176.221 182.307 176.384 183.086C176.546 183.858 176.545 184.562 176.38 185.199C176.219 185.836 175.918 186.368 175.476 186.796C175.037 187.223 174.48 187.508 173.805 187.649ZM173.589 186.617C174.102 186.51 174.496 186.29 174.772 185.958C175.048 185.626 175.22 185.229 175.289 184.768C175.359 184.306 175.341 183.826 175.236 183.326C175.131 182.827 174.954 182.378 174.705 181.98C174.456 181.582 174.138 181.284 173.751 181.087C173.364 180.891 172.915 180.846 172.402 180.954C171.89 181.061 171.496 181.282 171.221 181.618C170.946 181.953 170.774 182.353 170.705 182.818C170.637 183.283 170.655 183.765 170.76 184.264C170.864 184.764 171.041 185.211 171.29 185.606C171.538 186.001 171.856 186.295 172.242 186.488C172.627 186.682 173.077 186.725 173.589 186.617ZM178.912 186.416L177.346 178.942L178.494 178.702L180.061 186.176L178.912 186.416ZM177.669 177.574C177.445 177.621 177.236 177.585 177.042 177.467C176.851 177.348 176.733 177.181 176.688 176.967C176.643 176.753 176.685 176.553 176.812 176.367C176.942 176.181 177.119 176.064 177.343 176.017C177.566 175.97 177.774 176.006 177.965 176.125C178.159 176.244 178.278 176.41 178.323 176.624C178.368 176.838 178.325 177.039 178.195 177.225C178.068 177.411 177.893 177.527 177.669 177.574ZM182.164 185.735L180.598 178.261L181.707 178.028L181.944 179.157L182.022 179.141C182.08 178.743 182.264 178.391 182.573 178.086C182.881 177.781 183.259 177.581 183.707 177.487C183.791 177.47 183.897 177.449 184.024 177.426C184.151 177.403 184.248 177.387 184.314 177.38L184.559 178.548C184.518 178.547 184.426 178.551 184.282 178.56C184.141 178.566 183.995 178.585 183.842 178.617C183.479 178.693 183.17 178.838 182.917 179.05C182.666 179.258 182.486 179.513 182.376 179.813C182.269 180.11 182.251 180.427 182.321 180.765L183.312 185.494L182.164 185.735ZM189.89 184.278C189.267 184.409 188.684 184.367 188.141 184.152C187.598 183.934 187.131 183.565 186.741 183.044C186.35 182.519 186.071 181.861 185.905 181.07C185.741 180.285 185.733 179.575 185.881 178.942C186.029 178.308 186.31 177.783 186.725 177.368C187.139 176.953 187.66 176.679 188.29 176.547C188.776 176.445 189.178 176.446 189.494 176.549C189.813 176.648 190.068 176.784 190.26 176.957C190.455 177.126 190.608 177.267 190.719 177.379L190.817 177.359L190.046 173.68L191.194 173.439L193.283 183.405L192.173 183.637L191.933 182.489L191.796 182.517C191.74 182.671 191.656 182.868 191.544 183.109C191.431 183.346 191.248 183.576 190.993 183.798C190.737 184.018 190.37 184.178 189.89 184.278ZM189.829 183.214C190.29 183.118 190.654 182.916 190.922 182.609C191.188 182.299 191.36 181.913 191.435 181.45C191.51 180.984 191.489 180.469 191.371 179.904C191.254 179.346 191.07 178.875 190.82 178.491C190.57 178.103 190.261 177.826 189.894 177.659C189.527 177.489 189.109 177.452 188.642 177.55C188.156 177.652 187.776 177.862 187.504 178.18C187.235 178.494 187.063 178.88 186.99 179.339C186.92 179.794 186.94 180.284 187.05 180.81C187.161 181.342 187.344 181.808 187.597 182.209C187.853 182.606 188.168 182.899 188.543 183.088C188.92 183.273 189.349 183.315 189.829 183.214ZM198.711 182.43C197.991 182.581 197.337 182.552 196.748 182.343C196.162 182.131 195.667 181.767 195.265 181.252C194.865 180.733 194.584 180.091 194.424 179.325C194.264 178.56 194.262 177.856 194.418 177.214C194.577 176.567 194.874 176.028 195.308 175.595C195.745 175.158 196.301 174.868 196.975 174.727C197.365 174.645 197.763 174.63 198.169 174.68C198.576 174.73 198.966 174.869 199.338 175.095C199.71 175.319 200.039 175.65 200.324 176.088C200.608 176.526 200.824 177.094 200.97 177.791L201.072 178.278L195.311 179.485L195.103 178.492L199.696 177.53C199.608 177.108 199.445 176.749 199.207 176.454C198.972 176.158 198.68 175.946 198.332 175.819C197.987 175.692 197.607 175.672 197.192 175.759C196.734 175.854 196.362 176.051 196.076 176.348C195.792 176.641 195.598 176.987 195.495 177.384C195.392 177.781 195.384 178.186 195.47 178.598L195.609 179.26C195.727 179.824 195.925 180.282 196.202 180.634C196.481 180.982 196.818 181.221 197.211 181.352C197.603 181.48 198.031 181.495 198.495 181.398C198.797 181.335 199.061 181.236 199.286 181.1C199.514 180.961 199.7 180.787 199.842 180.577C199.984 180.365 200.076 180.119 200.119 179.839L201.294 179.918C201.256 180.318 201.129 180.69 200.913 181.034C200.696 181.374 200.402 181.666 200.03 181.91C199.657 182.15 199.218 182.324 198.711 182.43ZM207.838 172.552L206.641 180.605L205.473 180.85L201.143 173.955L202.388 173.694L205.7 179.218L205.778 179.201L206.593 172.813L207.838 172.552Z" fill="white"/>
</g>
</g>
</g>
<defs>
<filter id="filter0_d_107_30014" x="-2" y="-0.999756" width="240.77" height="240.77" filterUnits="userSpaceOnUse" color-interpolation-filters="sRGB">
<feFlood flood-opacity="0" result="BackgroundImageFix"/>
<feColorMatrix in="SourceAlpha" type="matrix" values="0 0 0 0 0 0 0 0 0 0 0 0 0 0 0 0 0 0 127 0" result="hardAlpha"/>
<feOffset dy="1"/>
<feGaussianBlur stdDeviation="1"/>
<feComposite in2="hardAlpha" operator="out"/>
<feColorMatrix type="matrix" values="0 0 0 0 0 0 0 0 0 0 0 0 0 0 0 0 0 0 0.1 0"/>
<feBlend mode="normal" in2="BackgroundImageFix" result="effect1_dropShadow_107_30014"/>
<feBlend mode="normal" in="SourceGraphic" in2="effect1_dropShadow_107_30014" result="shape"/>
</filter>
<clipPath id="clip0_107_30014">
<rect y="41.0217" width="200" height="200" rx="24" transform="rotate(-11.8359 0 41.0217)" fill="white"/>
</clipPath>
<clipPath id="clip1_107_30014">
<rect width="20" height="20" fill="white" transform="translate(18.9414 53.3997) rotate(-11.8359)"/>
</clipPath>
<clipPath id="clip2_107_30014">
<rect width="20" height="20" fill="white" transform="translate(18.9414 53.3997) rotate(-11.8359)"/>
</clipPath>
<clipPath id="clip3_107_30014">
<rect width="83" height="20" fill="white" transform="translate(49.2979 198.253) rotate(-11.8359)"/>
</clipPath>
<clipPath id="clip4_107_30014">
<rect width="71" height="20" fill="white" transform="translate(137.384 179.793) rotate(-11.8359)"/>
</clipPath>
</defs>
</svg>
